<?xml version="1.0" encoding="UTF-8"?>
<svg version="1.1" xmlns="http://www.w3.org/2000/svg" width="467" height="467">
<path d="M0 0 C1.12656006 0.03770508 1.12656006 0.03770508 2.27587891 0.07617188 C34.17727462 1.28535261 66.89545123 9.66949626 97 20 C97 20.99 97 21.98 97 23 C94.10388456 22.85865273 91.2081919 22.7120847 88.3125 22.5625 C87.49587891 22.52318359 86.67925781 22.48386719 85.83789062 22.44335938 C85.04189453 22.40146484 84.24589844 22.35957031 83.42578125 22.31640625 C82.69786377 22.27974854 81.96994629 22.24309082 81.2199707 22.20532227 C79 22 79 22 76.609375 21.51367188 C56.60209791 17.57511359 34.42459399 18.75497125 14.14761353 18.64651489 C11.75740636 18.63241662 9.36722692 18.61172313 6.97714233 18.58370972 C-14.53094747 18.35340197 -35.07149744 21.14496831 -56.1328125 25.3046875 C-58.88845472 25.8001464 -61.59389669 26.22440443 -64.3671875 26.5703125 C-101.96133969 31.259434 -139.26318686 42.02964967 -175.60546875 52.42578125 C-176.7860083 52.76343506 -177.96654785 53.10108887 -179.18286133 53.44897461 C-181.22625631 54.04175451 -183.26680006 54.64451023 -185.3034668 55.26000977 C-186.15980713 55.51194092 -187.01614746 55.76387207 -187.8984375 56.0234375 C-188.60661621 56.23919434 -189.31479492 56.45495117 -190.04443359 56.67724609 C-192.30846855 57.05091079 -193.83300479 56.69724937 -196 56 C-196 55.34 -196 54.68 -196 54 C-185.05626649 47.53463789 -173.88497908 42.0787951 -162.24169922 36.99169922 C-159.26048403 35.67284754 -156.31901424 34.27461333 -153.375 32.875 C-122.48694686 18.66102865 -88.48615333 9.51112477 -55 4 C-53.77410156 3.79761719 -52.54820312 3.59523438 -51.28515625 3.38671875 C-34.50639032 0.91425718 -16.94970896 -0.79934319 0 0 Z " fill="#FCD840" transform="translate(350,289)"/>
<path d="M0 0 C1.31307129 0.00644531 2.62614258 0.01289063 3.97900391 0.01953125 C29.59967351 0.4980104 53.10102934 11.38168088 71.05639648 29.71264648 C84.85141939 44.38922852 97.21529023 65.68420838 98.625 86.125 C98.375 89.5 98.375 89.5 97.25 91.4375 C94.4050175 93.04965675 92.5838071 93.02388687 89.375 92.5 C85.93054068 89.00516468 84.90950568 86.52090793 84.5 81.6875 C82.86042832 69.0984409 77.8532283 57.7191891 70.375 47.5 C69.7459375 46.63761719 69.116875 45.77523437 68.46875 44.88671875 C57.17101518 30.11448215 42.59185971 21.69254748 25.375 15.5 C24.35277344 15.12875 23.33054687 14.7575 22.27734375 14.375 C13.14210887 11.62090496 2.81903494 12.26965768 -6.625 12.5 C-7.99591797 12.52513672 -7.99591797 12.52513672 -9.39453125 12.55078125 C-26.3843354 13.44230021 -42.98926303 21.38691478 -55.625 32.5 C-56.82382813 33.52287109 -56.82382813 33.52287109 -58.046875 34.56640625 C-70.64597005 46.12861925 -78.4291081 62.33388759 -81.71875 78.93359375 C-82.79517477 81.98191734 -83.81935313 82.95424739 -86.625 84.5 C-89.99536311 84.25925978 -91.21298021 83.91201979 -93.625 81.5 C-94.10092828 75.43191439 -93.10612394 70.58610643 -91.125 64.875 C-90.85582764 64.09229736 -90.58665527 63.30959473 -90.30932617 62.50317383 C-81.76126165 38.67389717 -63.42592255 19.47304506 -40.70019531 8.57714844 C-27.48763592 2.58862509 -14.52521844 -0.07505603 0 0 Z " fill="#FAD943" transform="translate(242.625,180.5)"/>
<path d="M0 0 C0.84626953 -0.00090637 1.69253906 -0.00181274 2.56445312 -0.00274658 C4.99487904 -0.00245151 7.42508069 0.00648212 9.85546875 0.01953125 C10.58473068 0.02073471 11.31399261 0.02193817 12.06535339 0.0231781 C15.77821541 0.05732734 19.19618428 0.35638112 22.8125 1.1875 C24.89427607 1.33619829 26.97799943 1.45876893 29.0625 1.5625 C42.17016798 2.44000079 55.01494734 5.327825 67.8125 8.1875 C68.1425 9.5075 68.4725 10.8275 68.8125 12.1875 C65.49287846 13.55665266 62.15597419 14.87772851 58.8125 16.1875 C57.66910156 16.64253906 56.52570313 17.09757812 55.34765625 17.56640625 C45.15155206 21.45221794 38.50119937 21.82313454 27.96362305 19.78588867 C13.62715097 17.06343628 -0.37220876 16.87867846 -14.94580078 16.92675781 C-18.78304057 16.93741816 -22.61980623 16.92684833 -26.45703125 16.9140625 C-46.85837626 16.90228562 -66.5911787 18.57020758 -86.71582031 21.79638672 C-89.22256102 22.19304798 -91.73165888 22.56952996 -94.2421875 22.94140625 C-102.16912361 24.13013629 -109.83830203 25.52986477 -117.5859375 27.625 C-121.52548902 28.47679492 -125.17267217 28.38824139 -129.1875 28.1875 C-129.1875 27.5275 -129.1875 26.8675 -129.1875 26.1875 C-102.91893268 14.0361356 -72.94281494 5.45709312 -44.1875 2.1875 C-43.02468506 2.04997314 -43.02468506 2.04997314 -41.83837891 1.90966797 C-27.89719673 0.32428435 -14.01508745 -0.00099257 0 0 Z " fill="#FDD641" transform="translate(160.1875,280.8125)"/>
<path d="M0 0 C0.84626953 -0.00090637 1.69253906 -0.00181274 2.56445312 -0.00274658 C4.99487904 -0.00245151 7.42508069 0.00648212 9.85546875 0.01953125 C10.58473068 0.02073471 11.31399261 0.02193817 12.06535339 0.0231781 C15.77821541 0.05732734 19.19618428 0.35638112 22.8125 1.1875 C24.89427607 1.33619829 26.97799943 1.45876893 29.0625 1.5625 C42.17016798 2.44000079 55.01494734 5.327825 67.8125 8.1875 C68.3075 10.1675 68.3075 10.1675 68.8125 12.1875 C65.49287846 13.55665266 62.15597419 14.87772851 58.8125 16.1875 C57.66910156 16.64253906 56.52570313 17.09757812 55.34765625 17.56640625 C45.15775992 21.44985208 38.50203466 21.83117372 27.97021484 19.78442383 C12.96492352 16.94787386 -1.88762295 16.76150526 -17.125 16.5625 C-19.56186168 16.52423912 -21.998711 16.48518295 -24.43554688 16.4453125 C-30.35275346 16.35020724 -36.27003689 16.26491421 -42.1875 16.1875 C-42.1875 15.8575 -42.1875 15.5275 -42.1875 15.1875 C-27.3375 15.1875 -12.4875 15.1875 2.8125 15.1875 C2.8125 14.5275 2.8125 13.8675 2.8125 13.1875 C8.0925 13.1875 13.3725 13.1875 18.8125 13.1875 C18.8125 12.5275 18.8125 11.8675 18.8125 11.1875 C17.1625 11.1875 15.5125 11.1875 13.8125 11.1875 C13.3175 10.1975 13.3175 10.1975 12.8125 9.1875 C13.88371094 9.05472656 14.95492187 8.92195313 16.05859375 8.78515625 C17.45575769 8.6069944 18.85289159 8.42859681 20.25 8.25 C21.31057617 8.11948242 21.31057617 8.11948242 22.39257812 7.98632812 C25.90067968 7.80533809 25.90067968 7.80533809 28.8125 6.1875 C31.34299402 6.11436433 33.84554837 6.09502473 36.375 6.125 C37.44137695 6.13176758 37.44137695 6.13176758 38.52929688 6.13867188 C40.29040013 6.15049136 42.05146036 6.16842737 43.8125 6.1875 C40.8425 5.8575 37.8725 5.5275 34.8125 5.1875 C34.8125 4.5275 34.8125 3.8675 34.8125 3.1875 C-0.8275 3.6825 -0.8275 3.6825 -37.1875 4.1875 C-37.1875 4.5175 -37.1875 4.8475 -37.1875 5.1875 C-44.1175 5.1875 -51.0475 5.1875 -58.1875 5.1875 C-58.1875 4.8575 -58.1875 4.5275 -58.1875 4.1875 C-38.85608333 0.98828668 -19.56590644 -0.00138569 0 0 Z " fill="#FADA44" transform="translate(160.1875,280.8125)"/>
<path d="M0 0 C2.5 0.5 2.5 0.5 4.13000488 2.09474182 C5.97934269 5.34156718 5.89490232 7.75428653 5.91992188 11.48413086 C5.92839142 12.17894058 5.93686096 12.87375031 5.94558716 13.58961487 C5.9689455 15.88154511 5.96997967 18.17280359 5.96875 20.46484375 C5.97585226 22.06140918 5.98355136 23.65797205 5.99182129 25.25453186 C6.00526333 28.59936622 6.00683616 31.94396456 6.00097656 35.28881836 C5.99508021 39.57089289 6.02566923 43.85183369 6.06609344 48.13368893 C6.09196899 51.43060892 6.09484806 54.72725585 6.09120178 58.02426338 C6.09289315 59.60270602 6.10253747 61.18116124 6.12034607 62.75950432 C6.14253573 64.96926169 6.13283788 67.17672371 6.11523438 69.38647461 C6.11728882 70.642379 6.11934326 71.89828339 6.12145996 73.19224548 C5.34137771 77.34427579 3.68920668 78.83699661 0.5 81.5 C-4.375 78.75 -4.375 78.75 -5.5 76.5 C-5.60749907 74.24427148 -5.64892009 71.98530632 -5.66113281 69.72705078 C-5.66609772 69.03092682 -5.67106262 68.33480286 -5.67617798 67.61758423 C-5.69080649 65.31015033 -5.69760272 63.00278519 -5.703125 60.6953125 C-5.70887591 59.09349566 -5.71463365 57.49167885 -5.72039795 55.88986206 C-5.73090991 52.52894774 -5.73675129 49.16805736 -5.74023438 45.80712891 C-5.74571943 41.50054885 -5.76974665 37.19428493 -5.79820633 32.88780403 C-5.81683034 29.57810543 -5.82203818 26.268483 -5.82357025 22.95873642 C-5.82659788 21.37110541 -5.83463015 19.78347578 -5.84775543 18.19589615 C-5.86481144 15.9742656 -5.86293721 13.75340775 -5.85644531 11.53173828 C-5.86009094 10.26758087 -5.86373657 9.00342346 -5.86749268 7.70095825 C-5.37850639 3.4417586 -4.38660873 0.87732175 0 0 Z " fill="#FBDA41" transform="translate(243.5,69.5)"/>
<path d="M0 0 C0.556875 0.391875 1.11375 0.78375 1.6875 1.1875 C2.06447071 6.08100657 1.37916959 8.33445683 -1.625 12.1875 C-2.35589844 13.14011719 -3.08679688 14.09273437 -3.83984375 15.07421875 C-4.65582031 16.10160156 -5.47179687 17.12898438 -6.3125 18.1875 C-7.18922545 19.29784292 -8.0655164 20.40852905 -8.94140625 21.51953125 C-10.32523928 23.27409149 -11.70974801 25.02804966 -13.09838867 26.77880859 C-16.33223791 30.87557471 -19.42204882 35.05289513 -22.4375 39.3125 C-22.84564941 39.88548828 -23.25379883 40.45847656 -23.67431641 41.04882812 C-25.30454846 43.34038687 -26.93139591 45.63304114 -28.52441406 47.95068359 C-29.68904644 49.64465132 -30.87390873 51.3227938 -32.0625 53 C-32.73796875 53.97582031 -33.4134375 54.95164063 -34.109375 55.95703125 C-36.82535353 58.70671873 -38.48680159 59.11955727 -42.3125 59.1875 C-44.3125 57.1875 -44.3125 57.1875 -44.76171875 55.01171875 C-44.10149305 50.86090848 -41.68427535 48.19435479 -39.125 45 C-38.01523866 43.57031942 -36.90722765 42.13927884 -35.80078125 40.70703125 C-35.22408691 39.96533691 -34.64739258 39.22364258 -34.05322266 38.45947266 C-31.22122605 34.76318088 -28.5209749 30.97469438 -25.8125 27.1875 C-23.64875389 24.18538768 -21.48042615 21.18659447 -19.3125 18.1875 C-18.76464844 17.42711426 -18.21679688 16.66672852 -17.65234375 15.88330078 C-16.04868135 13.6649959 -14.43244014 11.45643533 -12.8125 9.25 C-12.09223633 8.24743164 -12.09223633 8.24743164 -11.35742188 7.22460938 C-4.77183149 -1.67658944 -4.77183149 -1.67658944 0 0 Z " fill="#FAD940" transform="translate(352.3125,112.8125)"/>
<path d="M0 0 C7.84194906 2.0682941 15.20598836 5.57735872 22.625 8.8125 C31.42194679 12.63171192 40.22412176 16.37535875 49.21484375 19.71875 C52.27208516 21.12516681 54.54346336 22.70425485 57 25 C57.4375 27.625 57.4375 27.625 57 30 C55 32 55 32 51.2890625 32.01171875 C44.20221474 31.04198429 37.82584565 27.74433595 31.375 24.8125 C29.46017298 23.95440628 27.5437688 23.09996519 25.62652588 22.24728394 C24.35035308 21.67917661 23.07540238 21.10831594 21.80169678 20.53469849 C18.52209833 19.06864244 15.23209264 17.68372709 11.87207031 16.41162109 C11.19826324 16.15458908 10.52445618 15.89755707 9.83023071 15.63273621 C7.96756041 14.93045345 6.09846278 14.24528605 4.22900391 13.5612793 C0.67032425 11.84059607 -1.4776182 10.02858215 -4 7 C-4 4.3125 -4 4.3125 -3 2 C-2.01 1.34 -1.02 0.68 0 0 Z " fill="#FAD743" transform="translate(70,197)"/>
<path d="M0 0 C7.42221144 3.71110572 11.98565296 11.16842281 16.8125 17.6875 C17.8697479 19.10680343 18.9270399 20.52607402 19.984375 21.9453125 C20.49806641 22.63657227 21.01175781 23.32783203 21.54101562 24.04003906 C23.53758709 26.72218025 25.55051221 29.3919119 27.5625 32.0625 C29.04326266 34.04047287 30.5223029 36.01973587 32 38 C32.47421387 38.63421875 32.94842773 39.2684375 33.43701172 39.921875 C34.96242335 41.96550733 36.48184639 44.01347188 38 46.0625 C38.48154541 46.70646729 38.96309082 47.35043457 39.45922852 48.01391602 C41.41182724 50.65977007 42.95304186 52.85912558 44 56 C42.5625 58.1875 42.5625 58.1875 41 60 C38.38225269 59.92300743 36.58729344 59.5635785 34.66381836 57.71777344 C30.50417724 52.70481626 26.57090376 47.54170659 22.6875 42.3125 C22.02741943 41.42836426 21.36733887 40.54422852 20.68725586 39.63330078 C18.78917886 37.09058947 16.89399973 34.54574922 15 32 C13.35580052 29.79043254 11.70996208 27.58213996 10.0625 25.375 C9.381875 24.46234375 8.70125 23.5496875 8 22.609375 C5.31298734 19.10366317 2.49038454 15.71596727 -0.37109375 12.3515625 C-2.22758647 9.67144591 -3.10512929 7.1208054 -4 4 C-2.68 2.68 -1.36 1.36 0 0 Z " fill="#F9D844" transform="translate(134,112)"/>
<path d="M0 0 C2 2 2 2 2.375 4.375 C1.86753791 7.92723461 0.76012575 8.71393128 -2 11 C-4.61064223 12.36677595 -7.31768974 13.42974512 -10.0625 14.49609375 C-10.84963379 14.81151627 -11.63676758 15.12693878 -12.44775391 15.45191956 C-14.96142725 16.45682681 -17.48043113 17.44747979 -20 18.4375 C-22.48295656 19.42453933 -24.96475791 20.41444443 -27.4465332 21.40444946 C-29.05734572 22.04562879 -30.66915593 22.68430767 -32.28198242 23.32040405 C-35.77104859 24.69815256 -39.24775059 26.08924733 -42.6875 27.58642578 C-43.739375 28.04388184 -44.79125 28.50133789 -45.875 28.97265625 C-46.75929688 29.368479 -47.64359375 29.76430176 -48.5546875 30.17211914 C-51.23882071 31.08085473 -53.18784674 31.34702786 -56 31 C-57.8125 28.5 -57.8125 28.5 -59 26 C-56.26367757 22.17066612 -54.12132063 20.22207686 -49.765625 18.45703125 C-48.72752686 18.02753174 -47.68942871 17.59803223 -46.61987305 17.15551758 C-45.50781494 16.71232178 -44.39575684 16.26912598 -43.25 15.8125 C-40.90749721 14.85430081 -38.56505065 13.89596413 -36.22265625 12.9375 C-35.02785645 12.45410156 -33.83305664 11.97070312 -32.60205078 11.47265625 C-29.09232305 10.0377452 -25.60465597 8.55968417 -22.12109375 7.0625 C-21.03860352 6.59996826 -19.95611328 6.13743652 -18.84082031 5.66088867 C-16.77672606 4.77826305 -14.7147786 3.8905958 -12.65527344 2.99731445 C-11.72102539 2.6024585 -10.78677734 2.20760254 -9.82421875 1.80078125 C-9.01041748 1.45184814 -8.19661621 1.10291504 -7.3581543 0.7434082 C-4.73480551 -0.08360257 -2.73395699 -0.27951457 0 0 Z " fill="#FAD842" transform="translate(417,198)"/>
<path d="M0 0 C0.84626953 -0.00090637 1.69253906 -0.00181274 2.56445312 -0.00274658 C4.99487904 -0.00245151 7.42508069 0.00648212 9.85546875 0.01953125 C10.58473068 0.02073471 11.31399261 0.02193817 12.06535339 0.0231781 C15.77821541 0.05732734 19.19618428 0.35638112 22.8125 1.1875 C24.89427607 1.33619829 26.97799943 1.45876893 29.0625 1.5625 C37.43865196 2.10490474 45.5790617 3.60261297 53.8125 5.1875 C53.8125 5.5175 53.8125 5.8475 53.8125 6.1875 C47.5425 5.8575 41.2725 5.5275 34.8125 5.1875 C34.8125 4.5275 34.8125 3.8675 34.8125 3.1875 C-0.8275 3.6825 -0.8275 3.6825 -37.1875 4.1875 C-37.1875 4.5175 -37.1875 4.8475 -37.1875 5.1875 C-44.1175 5.1875 -51.0475 5.1875 -58.1875 5.1875 C-58.1875 4.8575 -58.1875 4.5275 -58.1875 4.1875 C-38.85608333 0.98828668 -19.56590644 -0.00138569 0 0 Z " fill="#EEE060" transform="translate(160.1875,280.8125)"/>
<path d="M0 0 C3.3 0 6.6 0 10 0 C10 0.66 10 1.32 10 2 C10.66 2 11.32 2 12 2 C12 2.66 12 3.32 12 4 C13.64630328 3.85957123 15.29204179 3.71250671 16.9375 3.5625 C18.31228516 3.44068359 18.31228516 3.44068359 19.71484375 3.31640625 C21.96159732 3.23955024 21.96159732 3.23955024 23 2 C24.96259065 1.74261106 26.92597004 1.48807819 28.89453125 1.28125 C30.98790708 1.06032196 30.98790708 1.06032196 32.88842773 0.42016602 C35.31569774 -0.06281834 36.5588306 0.22509721 38.890625 0.99609375 C39.59960938 1.22490234 40.30859375 1.45371094 41.0390625 1.68945312 C41.76867187 1.93630859 42.49828125 2.18316406 43.25 2.4375 C43.99507813 2.68048828 44.74015625 2.92347656 45.5078125 3.17382812 C47.34158235 3.77332981 49.17122004 4.38544487 51 5 C51 5.99 51 6.98 51 8 C48.10388456 7.85865273 45.2081919 7.7120847 42.3125 7.5625 C41.49587891 7.52318359 40.67925781 7.48386719 39.83789062 7.44335938 C39.04189453 7.40146484 38.24589844 7.35957031 37.42578125 7.31640625 C36.69786377 7.27974854 35.96994629 7.24309082 35.2199707 7.20532227 C33 7 33 7 30.52734375 6.5 C28.03097292 6.00612756 25.67660791 5.79829842 23.13671875 5.68359375 C22.25048828 5.64169922 21.36425781 5.59980469 20.45117188 5.55664062 C19.53916016 5.51732422 18.62714844 5.47800781 17.6875 5.4375 C16.29047852 5.37272461 16.29047852 5.37272461 14.86523438 5.30664062 C12.57695546 5.20102775 10.28857628 5.09892248 8 5 C7.67 4.01 7.34 3.02 7 2 C4.69 2 2.38 2 0 2 C0 1.34 0 0.68 0 0 Z " fill="#F6DA3D" transform="translate(396,304)"/>
<path d="M0 0 C1.59134766 -0.00386719 1.59134766 -0.00386719 3.21484375 -0.0078125 C4.31699219 -0.00007812 5.41914063 0.00765625 6.5546875 0.015625 C7.66457031 0.00789062 8.77445313 0.00015625 9.91796875 -0.0078125 C10.97628906 -0.00523437 12.03460938 -0.00265625 13.125 0 C14.09453613 0.00225586 15.06407227 0.00451172 16.06298828 0.00683594 C18.4296875 0.265625 18.4296875 0.265625 20.4296875 2.265625 C14.1596875 2.595625 7.8896875 2.925625 1.4296875 3.265625 C6.02641939 5.10431776 8.90329681 5.61928534 13.7421875 5.890625 C14.99644531 5.96539062 16.25070313 6.04015625 17.54296875 6.1171875 C18.49558594 6.16617188 19.44820312 6.21515625 20.4296875 6.265625 C20.4296875 6.595625 20.4296875 6.925625 20.4296875 7.265625 C25.8746875 7.760625 25.8746875 7.760625 31.4296875 8.265625 C31.4296875 8.925625 31.4296875 9.585625 31.4296875 10.265625 C29.63810261 10.29258865 27.84640277 10.31200417 26.0546875 10.328125 C25.05695313 10.33972656 24.05921875 10.35132813 23.03125 10.36328125 C20.4296875 10.265625 20.4296875 10.265625 18.4296875 9.265625 C14.67598615 9.03217664 10.92848405 8.87103255 7.16992188 8.74804688 C2.82048465 8.55925066 -0.58100777 8.17129659 -4.5703125 6.265625 C-6.22951146 5.89691412 -7.8950768 5.55280826 -9.5703125 5.265625 C-9.5703125 4.275625 -9.5703125 3.285625 -9.5703125 2.265625 C-6.28425509 0.30933779 -3.79991789 0.0088209 0 0 Z " fill="#FCDA38" transform="translate(232.5703125,181.734375)"/>
<path d="M0 0 C0.66 0 1.32 0 2 0 C2 1.98 2 3.96 2 6 C2.66 6 3.32 6 4 6 C4 9.3 4 12.6 4 16 C3.34 16 2.68 16 2 16 C2 17.98 2 19.96 2 22 C-2.875 21.125 -2.875 21.125 -4 20 C-4.68931568 12.69325378 -2.53884753 6.80048445 0 0 Z " fill="#FDD936" transform="translate(153,242)"/>
<path d="M0 0 C6.6 0 13.2 0 20 0 C20 0.66 20 1.32 20 2 C23.3 2.66 26.6 3.32 30 4 C30 4.66 30 5.32 30 6 C26.37 6 22.74 6 19 6 C19 5.67 19 5.34 19 5 C18.13117188 4.96261719 17.26234375 4.92523438 16.3671875 4.88671875 C4.92091388 4.23374341 4.92091388 4.23374341 0 1 C0 0.67 0 0.34 0 0 Z " fill="#FFD148" transform="translate(233,184)"/>
<path d="M0 0 C2.40563753 2.40563753 2.60358311 3.67009811 3 7 C2.5625 9.3125 2.5625 9.3125 2 11 C2.66 11 3.32 11 4 11 C4 12.98 4 14.96 4 17 C3.01 17.33 2.02 17.66 1 18 C0.67 18.99 0.34 19.98 0 21 C-0.66 21 -1.32 21 -2 21 C-2 18.36 -2 15.72 -2 13 C-2.66 13 -3.32 13 -4 13 C-4.66 11.02 -5.32 9.04 -6 7 C-5.34 7 -4.68 7 -4 7 C-4 7.66 -4 8.32 -4 9 C-3.34 9 -2.68 9 -2 9 C-1.34 6.03 -0.68 3.06 0 0 Z " fill="#FED447" transform="translate(331,237)"/>
<path d="M0 0 C1.93719378 -0.05406122 3.87481921 -0.09282025 5.8125 -0.125 C6.89144531 -0.14820313 7.97039062 -0.17140625 9.08203125 -0.1953125 C12 0 12 0 15 2 C15 2.66 15 3.32 15 4 C15.66 4 16.32 4 17 4 C17 4.66 17 5.32 17 6 C17.598125 6.144375 18.19625 6.28875 18.8125 6.4375 C20.56150404 6.8872439 22.28677023 7.42892341 24 8 C23.34 6.68 22.68 5.36 22 4 C24.475 4.495 24.475 4.495 27 5 C26.34 6.32 25.68 7.64 25 9 C15.75626096 8.83493323 8.21799381 4.86195292 0 1 C0 0.67 0 0.34 0 0 Z " fill="#F5D74A" transform="translate(100,220)"/>
<path d="M0 0 C-0.99 0.33 -1.98 0.66 -3 1 C-3 1.66 -3 2.32 -3 3 C-3.90363281 3.04898437 -4.80726563 3.09796875 -5.73828125 3.1484375 C-6.91777344 3.22320312 -8.09726562 3.29796875 -9.3125 3.375 C-11.07013672 3.47941406 -11.07013672 3.47941406 -12.86328125 3.5859375 C-16.15699887 3.78613747 -16.15699887 3.78613747 -19 6 C-18.34 6.33 -17.68 6.66 -17 7 C-17 7.66 -17 8.32 -17 9 C-18.32 9 -19.64 9 -21 9 C-21.66 8.01 -22.32 7.02 -23 6 C-25.6556728 5.41651248 -25.6556728 5.41651248 -28.625 5.3125 C-29.62789063 5.24675781 -30.63078125 5.18101562 -31.6640625 5.11328125 C-32.43492187 5.07589844 -33.20578125 5.03851563 -34 5 C-34 4.67 -34 4.34 -34 4 C-11.19396552 -0.45689655 -11.19396552 -0.45689655 0 0 Z " fill="#F5DD44" transform="translate(318,291)"/>
<path d="M0 0 C4.10447392 0.51776621 5.95699523 2.64627444 8.75 5.5625 C9.94882812 6.80193359 9.94882812 6.80193359 11.171875 8.06640625 C11.77515625 8.70449219 12.3784375 9.34257812 13 10 C10 12 10 12 7.8125 11.625 C7.214375 11.41875 6.61625 11.2125 6 11 C6 10.34 6 9.68 6 9 C6.66 9 7.32 9 8 9 C8 8.34 8 7.68 8 7 C7.34 7 6.68 7 6 7 C5.67 6.34 5.34 5.68 5 5 C4.7525 5.598125 4.505 6.19625 4.25 6.8125 C2.83629988 9.28647521 1.34944617 10.43370255 -1 12 C-1.33 11.01 -1.66 10.02 -2 9 C-1.34 9 -0.68 9 0 9 C0.33 7.68 0.66 6.36 1 5 C0.34 5 -0.32 5 -1 5 C-1.33 5.66 -1.66 6.32 -2 7 C-2 6.01 -2 5.02 -2 4 C-0.68 3.67 0.64 3.34 2 3 C2 2.34 2 1.68 2 1 C1.34 0.67 0.68 0.34 0 0 Z " fill="#F7D937" transform="translate(305,205)"/>
<path d="M0 0 C2.59269983 0.01747888 5.0525154 0.13768592 7.625 0.375 C8.33140625 0.43171875 9.0378125 0.4884375 9.765625 0.546875 C11.51121361 0.68840921 13.25573673 0.84297387 15 1 C15 1.33 15 1.66 15 2 C14.44763672 2.07516846 13.89527344 2.15033691 13.32617188 2.2277832 C2.63396845 3.69275681 -7.98441023 5.26110403 -18.5546875 7.44921875 C-22.09502613 8.01519125 -25.42104573 8.09611003 -29 8 C-29 7.67 -29 7.34 -29 7 C-27.35 7 -25.7 7 -24 7 C-24 6.34 -24 5.68 -24 5 C-23.0821875 4.95101563 -22.164375 4.90203125 -21.21875 4.8515625 C-9.78293375 4.77931252 -9.78293375 4.77931252 0 0 Z " fill="#EEE55B" transform="translate(312,307)"/>
<path d="M0 0 C5.445 1.485 5.445 1.485 11 3 C11 3.99 11 4.98 11 6 C8.10388456 5.85865273 5.2081919 5.7120847 2.3125 5.5625 C1.49587891 5.52318359 0.67925781 5.48386719 -0.16210938 5.44335938 C-4.19655811 5.23101997 -8.05747309 4.95552078 -12 4 C-12 3.34 -12 2.68 -12 2 C-8.04 2 -4.08 2 0 2 C0 1.34 0 0.68 0 0 Z " fill="#F9D94D" transform="translate(436,306)"/>
<path d="M0 0 C-0.99 0.66 -1.98 1.32 -3 2 C-1.35 2.33 0.3 2.66 2 3 C2 3.33 2 3.66 2 4 C-4.14778871 5.6277833 -9.64012196 6.20190089 -16 6 C-16 5.34 -16 4.68 -16 4 C-15.37351562 3.72285156 -14.74703125 3.44570313 -14.1015625 3.16015625 C-13.28429688 2.79792969 -12.46703125 2.43570312 -11.625 2.0625 C-10.81289063 1.70285156 -10.00078125 1.34320313 -9.1640625 0.97265625 C-5.40922194 -0.71498869 -4.09274987 -0.96933549 0 0 Z " fill="#F2DD4E" transform="translate(47,303)"/>
<path d="M0 0 C0.66 0.33 1.32 0.66 2 1 C2.40729228 3.32156597 2.74438677 5.6568787 3 8 C3.99 7.67 4.98 7.34 6 7 C7 10 7 10 6 13 C4.1875 12.8125 4.1875 12.8125 2 12 C0.96986723 10.35178756 -0.03114628 8.68496298 -1 7 C-1.99 6.67 -2.98 6.34 -4 6 C-3.67 4.35 -3.34 2.7 -3 1 C-2.01 0.67 -1.02 0.34 0 0 Z " fill="#FBD934" transform="translate(151,135)"/>
<path d="M0 0 C2.125 0.375 2.125 0.375 4 1 C4 1.33 4 1.66 4 2 C5.65 2.33 7.3 2.66 9 3 C9 3.66 9 4.32 9 5 C4.13948404 7.59227518 -0.65271133 7.18689553 -6 7 C-5.34 6.67 -4.68 6.34 -4 6 C-3.3162955 4.67532254 -2.65035814 3.34136367 -2 2 C-1.34 1.34 -0.68 0.68 0 0 Z " fill="#FCD839" transform="translate(79,291)"/>
<path d="M0 0 C2 0 2 0 3.6875 1.625 C5.44121876 4.79839586 4.91530623 6.56760166 4 10 C3.67 10.33 3.34 10.66 3 11 C2.63239269 13.32817964 2.29758419 15.6618385 2 18 C1.34 18 0.68 18 0 18 C0 12.06 0 6.12 0 0 Z " fill="#FEDC33" transform="translate(333,254)"/>
<path d="M0 0 C0.99 0 1.98 0 3 0 C3 0.66 3 1.32 3 2 C5.64 2 8.28 2 11 2 C8.03786426 4.30465234 4.97847243 6.27590448 1.75 8.1875 C0.85796875 8.71730469 -0.0340625 9.24710938 -0.953125 9.79296875 C-1.62859375 10.19128906 -2.3040625 10.58960938 -3 11 C-3.33 10.01 -3.66 9.02 -4 8 C-3.01 7.34 -2.02 6.68 -1 6 C-0.34 5.01 0.32 4.02 1 3 C0.67 2.01 0.34 1.02 0 0 Z " fill="#F4DB46" transform="translate(194,198)"/>
<path d="M0 0 C1.36511719 0.29197266 1.36511719 0.29197266 2.7578125 0.58984375 C3.45648438 0.74582031 4.15515625 0.90179688 4.875 1.0625 C4.875 1.7225 4.875 2.3825 4.875 3.0625 C3.62836669 3.57083591 2.37750613 4.06881145 1.125 4.5625 C0.42890625 4.8409375 -0.2671875 5.119375 -0.984375 5.40625 C-3.125 6.0625 -3.125 6.0625 -7.125 6.0625 C-7.125 5.4025 -7.125 4.7425 -7.125 4.0625 C-5.805 4.0625 -4.485 4.0625 -3.125 4.0625 C-3.125 3.4025 -3.125 2.7425 -3.125 2.0625 C-4.445 2.0625 -5.765 2.0625 -7.125 2.0625 C-7.125 1.4025 -7.125 0.7425 -7.125 0.0625 C-4.4030754 -1.2984623 -2.9418043 -0.64116248 0 0 Z " fill="#FED73B" transform="translate(396.125,209.9375)"/>
<path d="M0 0 C0.99 0 1.98 0 3 0 C4.61949011 2.57213134 5.04408751 3.67669159 4.625 6.75 C4.41875 7.4925 4.2125 8.235 4 9 C2.68 9.33 1.36 9.66 0 10 C-0.12375 9.360625 -0.2475 8.72125 -0.375 8.0625 C-0.684375 7.0415625 -0.684375 7.0415625 -1 6 C-1.66 5.67 -2.32 5.34 -3 5 C-2.505 4.360625 -2.01 3.72125 -1.5 3.0625 C0.09802862 1.29025661 0.09802862 1.29025661 0 0 Z " fill="#FBD738" transform="translate(314,160)"/>
<path d="M0 0 C0.99 0.66 1.98 1.32 3 2 C2.67 2.66 2.34 3.32 2 4 C-2.62 4 -7.24 4 -12 4 C-12 3.34 -12 2.68 -12 2 C-8.07178453 -0.61881031 -4.56556861 -0.28987737 0 0 Z " fill="#FEDB34" transform="translate(313,296)"/>
<path d="M0 0 C3.3 0 6.6 0 10 0 C10 0.66 10 1.32 10 2 C10.66 2 11.32 2 12 2 C12 2.66 12 3.32 12 4 C14.97 4 17.94 4 21 4 C21 4.33 21 4.66 21 5 C16.71 5 12.42 5 8 5 C7.67 4.01 7.34 3.02 7 2 C4.69 2 2.38 2 0 2 C0 1.34 0 0.68 0 0 Z " fill="#F2DC52" transform="translate(396,304)"/>
<path d="M0 0 C8.24430867 0.47912816 16.00044527 1.97785501 24 4 C23.34 4.66 22.68 5.32 22 6 C20.68 6 19.36 6 18 6 C18 5.34 18 4.68 18 4 C14.37 4 10.74 4 7 4 C7 3.34 7 2.68 7 2 C4.69 1.67 2.38 1.34 0 1 C0 0.67 0 0.34 0 0 Z " fill="#F2E34D" transform="translate(374,292)"/>
<path d="M0 0 C12.06601824 -0.38103216 23.18895325 0.48828373 35 3 C35 3.33 35 3.66 35 4 C28.73 3.67 22.46 3.34 16 3 C16 2.34 16 1.68 16 1 C10.72 1 5.44 1 0 1 C0 0.67 0 0.34 0 0 Z " fill="#F1E452" transform="translate(179,283)"/>
<path d="M0 0 C0.53625 0.144375 1.0725 0.28875 1.625 0.4375 C3.42206361 0.86312033 5.23985372 1.2024251 7.0625 1.5 C10 2 10 2 13 3 C13 3.99 13 4.98 13 6 C9.7 6 6.4 6 3 6 C2.67 5.01 2.34 4.02 2 3 C1.34 2.67 0.68 2.34 0 2 C0 1.34 0 0.68 0 0 Z " fill="#FEDB33" transform="translate(99,214)"/>
<path d="M0 0 C7.59 0 15.18 0 23 0 C23 0.33 23 0.66 23 1 C20.47980028 1.33885038 17.95901484 1.67120335 15.4375 2 C14.73302734 2.09539062 14.02855469 2.19078125 13.30273438 2.2890625 C8.82632145 2.86666417 4.51338762 3.09489383 0 3 C0 2.01 0 1.02 0 0 Z " fill="#F1E156" transform="translate(64,300)"/>
<path d="M0 0 C4.95 0 9.9 0 15 0 C15 0.33 15 0.66 15 1 C12.31275296 1.48062124 9.62521967 1.95953496 6.9375 2.4375 C6.18533203 2.57220703 5.43316406 2.70691406 4.65820312 2.84570312 C0.11474542 3.6521177 -4.42804307 4.37461944 -9 5 C-8.67 4.01 -8.34 3.02 -8 2 C-5.36 1.67 -2.72 1.34 0 1 C0 0.67 0 0.34 0 0 Z " fill="#EEE257" transform="translate(262,316)"/>
<path d="M0 0 C0 0.33 0 0.66 0 1 C-3.3 1.33 -6.6 1.66 -10 2 C-10.33 2.99 -10.66 3.98 -11 5 C-12.32 5 -13.64 5 -15 5 C-15.33 4.34 -15.66 3.68 -16 3 C-19.02934491 2.34227572 -19.02934491 2.34227572 -22 2 C-22 1.67 -22 1.34 -22 1 C-14.66236293 -0.17402193 -7.41834582 -0.09377123 0 0 Z " fill="#EEE26D" transform="translate(350,289)"/>
<path d="M0 0 C0.66 0.66 1.32 1.32 2 2 C1.67 2.99 1.34 3.98 1 5 C2.65 4.67 4.3 4.34 6 4 C6.99 5.485 6.99 5.485 8 7 C6.68 6.67 5.36 6.34 4 6 C3.34 7.65 2.68 9.3 2 11 C1.01 10.67 0.02 10.34 -1 10 C-0.773125 9.401875 -0.54625 8.80375 -0.3125 8.1875 C-0.209375 7.465625 -0.10625 6.74375 0 6 C-1.35444301 4.22809091 -1.35444301 4.22809091 -3 3 C-2.01 2.01 -1.02 1.02 0 0 Z " fill="#FAD437" transform="translate(139,119)"/>
<path d="M0 0 C-0.99 0.33 -1.98 0.66 -3 1 C-3 1.66 -3 2.32 -3 3 C-9.6 3 -16.2 3 -23 3 C-23 2.67 -23 2.34 -23 2 C-7.25512528 -0.29612756 -7.25512528 -0.29612756 0 0 Z " fill="#E7E35F" transform="translate(318,291)"/>
<path d="M0 0 C0 0.66 0 1.32 0 2 C-0.99 2 -1.98 2 -3 2 C-3 2.66 -3 3.32 -3 4 C-7.53701494 5.45184478 -11.18061476 6.23509196 -16 6 C-11.38503922 1.96190932 -6.07147123 0 0 0 Z " fill="#F2E13E" transform="translate(225,312)"/>
<path d="M0 0 C0.66 0 1.32 0 2 0 C1.49775354 5.02246462 0.32134845 8.55074881 -2 13 C-2.69907414 15.73572585 -2.69907414 15.73572585 -3 18 C-3.33 18 -3.66 18 -4 18 C-3.48914188 11.56318772 -2.27057103 6.04057576 0 0 Z " fill="#F5DF3E" transform="translate(153,242)"/>
<path d="M0 0 C0.66 0 1.32 0 2 0 C2 0.66 2 1.32 2 2 C2.66 2 3.32 2 4 2 C4 3.32 4 4.64 4 6 C4.66 6 5.32 6 6 6 C6 6.66 6 7.32 6 8 C4.68 8 3.36 8 2 8 C2 7.34 2 6.68 2 6 C1.34 6 0.68 6 0 6 C0 5.34 0 4.68 0 4 C-1.32 3.67 -2.64 3.34 -4 3 C-2.68 2.67 -1.36 2.34 0 2 C0 1.34 0 0.68 0 0 Z " fill="#FDDE31" transform="translate(115,218)"/>
<path d="M0 0 C0.99 1.32 1.98 2.64 3 4 C1.515 6.475 1.515 6.475 0 9 C-2.375 8.6875 -2.375 8.6875 -5 8 C-5.66 7.01 -6.32 6.02 -7 5 C-5.68 5 -4.36 5 -3 5 C-1.55802132 3.55802132 -0.88213756 1.82308429 0 0 Z " fill="#F5D84A" transform="translate(175,163)"/>
<path d="M0 0 C0 0.99 0 1.98 0 3 C-6.93 3 -13.86 3 -21 3 C-21 2.67 -21 2.34 -21 2 C-18.81347261 1.66034526 -16.62571975 1.32857523 -14.4375 1 C-13.21933594 0.814375 -12.00117187 0.62875 -10.74609375 0.4375 C-7.12372152 0.01444923 -3.64287954 -0.07501425 0 0 Z " fill="#EEE455" transform="translate(123,283)"/>
<path d="M0 0 C4.95 0.99 4.95 0.99 10 2 C10 2.66 10 3.32 10 4 C12.97 4.495 12.97 4.495 16 5 C11.68988475 6.49196297 7.87171121 5.83187165 3.75 4 C2.88375 3.505 2.88375 3.505 2 3 C1.34 2.67 0.68 2.34 0 2 C0 1.34 0 0.68 0 0 Z " fill="#FBDA31" transform="translate(371,292)"/>
<path d="M0 0 C0.99 0.33 1.98 0.66 3 1 C3 1.66 3 2.32 3 3 C3.99 3 4.98 3 6 3 C5.67 4.32 5.34 5.64 5 7 C4.34 7 3.68 7 3 7 C2.67 5.68 2.34 4.36 2 3 C1.34 3 0.68 3 0 3 C0 4.98 0 6.96 0 9 C-0.66 9 -1.32 9 -2 9 C-2.25 3.375 -2.25 3.375 0 0 Z " fill="#F9D64D" transform="translate(343,117)"/>
<path d="M0 0 C0.99 0.33 1.98 0.66 3 1 C3 2.98 3 4.96 3 7 C1.68 7 0.36 7 -1 7 C-1 6.01 -1 5.02 -1 4 C-1.66 4 -2.32 4 -3 4 C-2.67 3.01 -2.34 2.02 -2 1 C-1.34 0.67 -0.68 0.34 0 0 Z " fill="#F8D64A" transform="translate(350,112)"/>
<path d="M0 0 C4.95 0 9.9 0 15 0 C14.01 0.33 13.02 0.66 12 1 C12 1.99 12 2.98 12 4 C9.03 3.505 9.03 3.505 6 3 C6 2.34 6 1.68 6 1 C4.02 1 2.04 1 0 1 C0 0.67 0 0.34 0 0 Z " fill="#F3DD4B" transform="translate(359,291)"/>
<path d="M0 0 C1.32 0 2.64 0 4 0 C4 0.66 4 1.32 4 2 C2.35 2.33 0.7 2.66 -1 3 C-1 3.99 -1 4.98 -1 6 C-2.98 6 -4.96 6 -7 6 C-6.34 4.68 -5.68 3.36 -5 2 C-3.35 2 -1.7 2 0 2 C0 1.34 0 0.68 0 0 Z " fill="#FEDA37" transform="translate(383,214)"/>
<path d="M0 0 C0.66 0 1.32 0 2 0 C2 0.66 2 1.32 2 2 C2.66 2 3.32 2 4 2 C4 2.66 4 3.32 4 4 C3.34 4 2.68 4 2 4 C2 4.66 2 5.32 2 6 C2.99 6.33 3.98 6.66 5 7 C5 7.99 5 8.98 5 10 C3.02 9.34 1.04 8.68 -1 8 C-0.67 5.36 -0.34 2.72 0 0 Z " fill="#FED03D" transform="translate(169,160)"/>
<path d="M0 0 C2.64 0.33 5.28 0.66 8 1 C8 1.33 8 1.66 8 2 C6.02 2 4.04 2 2 2 C2 2.66 2 3.32 2 4 C-1.63 4 -5.26 4 -9 4 C-5.5647952 1.70986347 -4.014669 1.82157027 0 2 C0 1.34 0 0.68 0 0 Z " fill="#FDD24C" transform="translate(267,300)"/>
<path d="M0 0 C2.475 0.495 2.475 0.495 5 1 C5.85856655 4.4342662 5.97591583 6.61682513 5 10 C4.15801693 8.90241493 3.32669329 7.79664683 2.5 6.6875 C2.0359375 6.07261719 1.571875 5.45773438 1.09375 4.82421875 C0 3 0 3 0 0 Z " fill="#F7DC3F" transform="translate(312,224)"/>
<path d="M0 0 C0.70125 0.00515625 1.4025 0.0103125 2.125 0.015625 C2.82625 0.01046875 3.5275 0.0053125 4.25 0 C6.125 0.265625 6.125 0.265625 8.125 2.265625 C4.0044254 4.26347935 0.67305635 4.44398015 -3.875 4.265625 C-3.875 1.40344661 -2.81063049 0.39817265 0 0 Z " fill="#F9D554" transform="translate(374.875,219.734375)"/>
<path d="M0 0 C0 0.66 0 1.32 0 2 C0.99 2 1.98 2 3 2 C2.67 3.32 2.34 4.64 2 6 C0.68 6.33 -0.64 6.66 -2 7 C-2.99 5.35 -3.98 3.7 -5 2 C-2 0 -2 0 0 0 Z " fill="#F4D74F" transform="translate(313,218)"/>
<path d="M0 0 C1.31571603 0.2547514 2.62760376 0.52934141 3.9375 0.8125 C4.66839844 0.96332031 5.39929688 1.11414063 6.15234375 1.26953125 C6.76207031 1.51058594 7.37179688 1.75164062 8 2 C8.33 2.99 8.66 3.98 9 5 C6.36 5 3.72 5 1 5 C0.67 3.35 0.34 1.7 0 0 Z " fill="#FCD935" transform="translate(66,201)"/>
<path d="M0 0 C2.31 0.66 4.62 1.32 7 2 C7 2.99 7 3.98 7 5 C1.06 4.67 -4.88 4.34 -11 4 C-11 3.67 -11 3.34 -11 3 C-5.555 2.505 -5.555 2.505 0 2 C0 1.34 0 0.68 0 0 Z " fill="#EADF5E" transform="translate(440,307)"/>
<path d="M0 0 C0.99 0 1.98 0 3 0 C3.33 2.64 3.66 5.28 4 8 C2.0625 7.6875 2.0625 7.6875 0 7 C-1.04449911 3.86650268 -0.93423645 3.01031744 0 0 Z " fill="#FCD246" transform="translate(321,234)"/>
<path d="M0 0 C1.4606285 2.64738916 2 3.89448334 2 7 C1.34 7 0.68 7 0 7 C-0.99 8.485 -0.99 8.485 -2 10 C-2.66 8.68 -3.32 7.36 -4 6 C-2.68 4.02 -1.36 2.04 0 0 Z " fill="#FCD74C" transform="translate(148,130)"/>
<path d="M0 0 C1.43931117 0.45261358 2.87638999 0.91232979 4.3125 1.375 C5.11300781 1.63023437 5.91351563 1.88546875 6.73828125 2.1484375 C9 3 9 3 12 5 C10.02 5 8.04 5 6 5 C6 4.34 6 3.68 6 3 C3.03 3 0.06 3 -3 3 C-2.01 2.01 -1.02 1.02 0 0 Z " fill="#F3E043" transform="translate(70,197)"/>
<path d="M0 0 C0.70640625 0.05220703 1.4128125 0.10441406 2.140625 0.15820312 C3.88579987 0.28791207 5.63045725 0.42454954 7.375 0.5625 C7.375 0.8925 7.375 1.2225 7.375 1.5625 C4.91720024 1.78376178 2.45972352 1.99000395 0 2.1875 C-1.04800781 2.28417969 -1.04800781 2.28417969 -2.1171875 2.3828125 C-3.94869111 2.52369739 -5.78812748 2.55011659 -7.625 2.5625 C-8.285 1.9025 -8.945 1.2425 -9.625 0.5625 C-6.5270403 -0.98647985 -3.36283448 -0.26989539 0 0 Z " fill="#F5DC5C" transform="translate(319.625,307.4375)"/>
<path d="M0 0 C0.33 0 0.66 0 1 0 C1.19622241 4.21878192 0.80230168 7.17010894 -1 11 C-1.66 10.67 -2.32 10.34 -3 10 C-2.25 3.375 -2.25 3.375 0 0 Z " fill="#FDD245" transform="translate(152,252)"/>
<path d="M0 0 C4.29 0 8.58 0 13 0 C9.74076883 2.17282078 7.87726431 2.76261647 4 3 C2.68 2.01 1.36 1.02 0 0 Z " fill="#EFDF4F" transform="translate(185,334)"/>
<path d="M0 0 C4.02992782 0.55312735 8.02022924 1.1558062 12 2 C12 2.33 12 2.66 12 3 C6.71502591 4.05699482 6.71502591 4.05699482 4 4 C1.5 2.0625 1.5 2.0625 0 0 Z " fill="#F3DD53" transform="translate(216,287)"/>
<path d="M0 0 C0.66 0 1.32 0 2 0 C2.99 3.3 3.98 6.6 5 10 C4.01 10 3.02 10 2 10 C2 8.02 2 6.04 2 4 C1.34 4 0.68 4 0 4 C0 2.68 0 1.36 0 0 Z " fill="#F1DE43" transform="translate(333,244)"/>
<path d="M0 0 C3 1 3 1 5 4 C5 5.32 5 6.64 5 8 C3.68 8 2.36 8 1 8 C1 7.34 1 6.68 1 6 C1.66 6 2.32 6 3 6 C3 5.34 3 4.68 3 4 C2.34 4 1.68 4 1 4 C0.67 2.68 0.34 1.36 0 0 Z " fill="#F8DC30" transform="translate(170,158)"/>
<path d="M0 0 C2.97 0.495 2.97 0.495 6 1 C5.67 1.66 5.34 2.32 5 3 C2.67843403 3.40729228 0.3431213 3.74438677 -2 4 C-1.34 2.68 -0.68 1.36 0 0 Z " fill="#F4DB4A" transform="translate(223,291)"/>
<path d="M0 0 C2.42115191 2.42115191 2.60948898 3.64160525 3 7 C2.5625 9.8125 2.5625 9.8125 2 12 C-0.13586678 8.79619983 -0.23132175 7.98060033 -0.125 4.3125 C-0.10695313 3.50425781 -0.08890625 2.69601563 -0.0703125 1.86328125 C-0.04710937 1.24839844 -0.02390625 0.63351563 0 0 Z " fill="#FBDA55" transform="translate(331,237)"/>
<path d="M0 0 C0.99 0.33 1.98 0.66 3 1 C0.525 5.455 0.525 5.455 -2 10 C-2.33 10 -2.66 10 -3 10 C-3 8.02 -3 6.04 -3 4 C-2.01 4 -1.02 4 0 4 C0 2.68 0 1.36 0 0 Z " fill="#F2E348" transform="translate(169,230)"/>
<path d="M0 0 C0.90492188 0.02320313 1.80984375 0.04640625 2.7421875 0.0703125 C4.10730469 0.09738281 4.10730469 0.09738281 5.5 0.125 C6.19867188 0.14820313 6.89734375 0.17140625 7.6171875 0.1953125 C7.6171875 0.5253125 7.6171875 0.8553125 7.6171875 1.1953125 C-0.41852679 3.47209821 -0.41852679 3.47209821 -4.3828125 2.1953125 C-2.3828125 0.1953125 -2.3828125 0.1953125 0 0 Z " fill="#ECE14D" transform="translate(206.3828125,329.8046875)"/>
<path d="M0 0 C0.99 0.66 1.98 1.32 3 2 C2.34 2 1.68 2 1 2 C1 2.66 1 3.32 1 4 C0.34 4 -0.32 4 -1 4 C-1 4.66 -1 5.32 -1 6 C-1.99 6 -2.98 6 -4 6 C-2.25 1.125 -2.25 1.125 0 0 Z " fill="#F1D845" transform="translate(134,112)"/>
<path d="M0 0 C2.31 0.33 4.62 0.66 7 1 C3.5647952 3.29013653 2.014669 3.17842973 -2 3 C-1.34 2.01 -0.68 1.02 0 0 Z " fill="#F7E255" transform="translate(55,302)"/>
<path d="M0 0 C0.66 0.33 1.32 0.66 2 1 C2 1.99 2 2.98 2 4 C2.66 4.33 3.32 4.66 4 5 C1 7 1 7 -1.1875 6.625 C-1.785625 6.41875 -2.38375 6.2125 -3 6 C-2.01 6 -1.02 6 0 6 C0 4.02 0 2.04 0 0 Z " fill="#F2DA54" transform="translate(155,258)"/>
<path d="M0 0 C0.33 1.32 0.66 2.64 1 4 C1.66 4 2.32 4 3 4 C3 5.32 3 6.64 3 8 C2.01 8 1.02 8 0 8 C-1.125 2.25 -1.125 2.25 0 0 Z " fill="#FDE133" transform="translate(156,234)"/>
<path d="M0 0 C2.31 0 4.62 0 7 0 C5 3 5 3 2.875 3.6875 C1.946875 3.8421875 1.946875 3.8421875 1 4 C0.67 2.68 0.34 1.36 0 0 Z " fill="#F3D84C" transform="translate(410,206)"/>
<path d="M0 0 C2.35171131 0.59861742 4.6859378 1.26924352 7 2 C7.33 2.66 7.66 3.32 8 4 C6.02 4 4.04 4 2 4 C2 3.34 2 2.68 2 2 C1.34 2 0.68 2 0 2 C0 1.34 0 0.68 0 0 Z " fill="#F4DC4E" transform="translate(115,216)"/>
<path d="M0 0 C0.66 0.33 1.32 0.66 2 1 C1.67 1.66 1.34 2.32 1 3 C-1.64860427 3.59355614 -4.29197322 3.74209269 -7 4 C-4.61426621 2.10786631 -2.92824652 0.97608217 0 0 Z " fill="#F1E04C" transform="translate(393,206)"/>
<path d="M0 0 C1.32 0.33 2.64 0.66 4 1 C2.35 2.65 0.7 4.3 -1 6 C-1.33 5.01 -1.66 4.02 -2 3 C-1.34 2.01 -0.68 1.02 0 0 Z " fill="#F6DE46" transform="translate(327,150)"/>
<path d="M0 0 C0.6875 1.8125 0.6875 1.8125 1 4 C-0.4375 5.75 -0.4375 5.75 -2 7 C-2.99 6.67 -3.98 6.34 -5 6 C-3.35 4.02 -1.7 2.04 0 0 Z " fill="#F8DD4E" transform="translate(329,137)"/>
</svg>
