<?xml version="1.0" encoding="UTF-8"?>
<svg version="1.1" xmlns="http://www.w3.org/2000/svg" width="467" height="467">
<path d="M0 0 C1.12656006 0.03770508 1.12656006 0.03770508 2.27587891 0.07617188 C34.17727462 1.28535261 66.89545123 9.66949626 97 20 C97 20.99 97 21.98 97 23 C94.10388456 22.85865273 91.2081919 22.7120847 88.3125 22.5625 C87.49587891 22.52318359 86.67925781 22.48386719 85.83789062 22.44335938 C85.04189453 22.40146484 84.24589844 22.35957031 83.42578125 22.31640625 C82.69786377 22.27974854 81.96994629 22.24309082 81.2199707 22.20532227 C79 22 79 22 76.609375 21.51367188 C56.60209791 17.57511359 34.42459399 18.75497125 14.14761353 18.64651489 C11.75740636 18.63241662 9.36722692 18.61172313 6.97714233 18.58370972 C-14.53094747 18.35340197 -35.07149744 21.14496831 -56.1328125 25.3046875 C-58.88845472 25.8001464 -61.59389669 26.22440443 -64.3671875 26.5703125 C-101.96133969 31.259434 -139.26318686 42.02964967 -175.60546875 52.42578125 C-176.7860083 52.76343506 -177.96654785 53.10108887 -179.18286133 53.44897461 C-181.22625631 54.04175451 -183.26680006 54.64451023 -185.3034668 55.26000977 C-186.15980713 55.51194092 -187.01614746 55.76387207 -187.8984375 56.0234375 C-188.60661621 56.23919434 -189.31479492 56.45495117 -190.04443359 56.67724609 C-192.30846855 57.05091079 -193.83300479 56.69724937 -196 56 C-196 55.34 -196 54.68 -196 54 C-185.05626649 47.53463789 -173.88497908 42.0787951 -162.24169922 36.99169922 C-159.26048403 35.67284754 -156.31901424 34.27461333 -153.375 32.875 C-122.48694686 18.66102865 -88.48615333 9.51112477 -55 4 C-53.77410156 3.79761719 -52.54820312 3.59523438 -51.28515625 3.38671875 C-34.50639032 0.91425718 -16.94970896 -0.79934319 0 0 Z " fill="#2AA927" transform="translate(350,289)"/>
<path d="M0 0 C1.31307129 0.00644531 2.62614258 0.01289063 3.97900391 0.01953125 C29.59967351 0.4980104 53.10102934 11.38168088 71.05639648 29.71264648 C84.85141939 44.38922852 97.21529023 65.68420838 98.625 86.125 C98.375 89.5 98.375 89.5 97.25 91.4375 C94.4050175 93.04965675 92.5838071 93.02388687 89.375 92.5 C85.93054068 89.00516468 84.90950568 86.52090793 84.5 81.6875 C82.86042832 69.0984409 77.8532283 57.7191891 70.375 47.5 C69.7459375 46.63761719 69.116875 45.77523437 68.46875 44.88671875 C57.17101518 30.11448215 42.59185971 21.69254748 25.375 15.5 C24.35277344 15.12875 23.33054687 14.7575 22.27734375 14.375 C13.14210887 11.62090496 2.81903494 12.26965768 -6.625 12.5 C-7.99591797 12.52513672 -7.99591797 12.52513672 -9.39453125 12.55078125 C-26.3843354 13.44230021 -42.98926303 21.38691478 -55.625 32.5 C-56.82382813 33.52287109 -56.82382813 33.52287109 -58.046875 34.56640625 C-70.64597005 46.12861925 -78.4291081 62.33388759 -81.71875 78.93359375 C-82.79517477 81.98191734 -83.81935313 82.95424739 -86.625 84.5 C-89.99536311 84.25925978 -91.21298021 83.91201979 -93.625 81.5 C-94.10092828 75.43191439 -93.10612394 70.58610643 -91.125 64.875 C-90.85582764 64.09229736 -90.58665527 63.30959473 -90.30932617 62.50317383 C-81.76126165 38.67389717 -63.42592255 19.47304506 -40.70019531 8.57714844 C-27.48763592 2.58862509 -14.52521844 -0.07505603 0 0 Z " fill="#2CA929" transform="translate(242.625,180.5)"/>
<path d="M0 0 C0.84626953 -0.00090637 1.69253906 -0.00181274 2.56445312 -0.00274658 C4.99487904 -0.00245151 7.42508069 0.00648212 9.85546875 0.01953125 C10.58473068 0.02073471 11.31399261 0.02193817 12.06535339 0.0231781 C15.77821541 0.05732734 19.19618428 0.35638112 22.8125 1.1875 C24.89427607 1.33619829 26.97799943 1.45876893 29.0625 1.5625 C42.17016798 2.44000079 55.01494734 5.327825 67.8125 8.1875 C68.1425 9.5075 68.4725 10.8275 68.8125 12.1875 C65.49287846 13.55665266 62.15597419 14.87772851 58.8125 16.1875 C57.66910156 16.64253906 56.52570313 17.09757812 55.34765625 17.56640625 C45.15155206 21.45221794 38.50119937 21.82313454 27.96362305 19.78588867 C13.62715097 17.06343628 -0.37220876 16.87867846 -14.94580078 16.92675781 C-18.78304057 16.93741816 -22.61980623 16.92684833 -26.45703125 16.9140625 C-46.85837626 16.90228562 -66.5911787 18.57020758 -86.71582031 21.79638672 C-89.22256102 22.19304798 -91.73165888 22.56952996 -94.2421875 22.94140625 C-102.16912361 24.13013629 -109.83830203 25.52986477 -117.5859375 27.625 C-121.52548902 28.47679492 -125.17267217 28.38824139 -129.1875 28.1875 C-129.1875 27.5275 -129.1875 26.8675 -129.1875 26.1875 C-102.91893268 14.0361356 -72.94281494 5.45709312 -44.1875 2.1875 C-43.02468506 2.04997314 -43.02468506 2.04997314 -41.83837891 1.90966797 C-27.89719673 0.32428435 -14.01508745 -0.00099257 0 0 Z " fill="#2BAA26" transform="translate(160.1875,280.8125)"/>
<path d="M0 0 C0.84626953 -0.00090637 1.69253906 -0.00181274 2.56445312 -0.00274658 C4.99487904 -0.00245151 7.42508069 0.00648212 9.85546875 0.01953125 C10.58473068 0.02073471 11.31399261 0.02193817 12.06535339 0.0231781 C15.77821541 0.05732734 19.19618428 0.35638112 22.8125 1.1875 C24.89427607 1.33619829 26.97799943 1.45876893 29.0625 1.5625 C37.43865196 2.10490474 45.5790617 3.60261297 53.8125 5.1875 C53.8125 5.5175 53.8125 5.8475 53.8125 6.1875 C47.0625 7.3125 47.0625 7.3125 44.8125 6.1875 C43.10886178 5.96127919 41.39921299 5.77861527 39.6875 5.625 C38.77742187 5.54121094 37.86734375 5.45742188 36.9296875 5.37109375 C36.23101562 5.31050781 35.53234375 5.24992187 34.8125 5.1875 C34.8125 4.5275 34.8125 3.8675 34.8125 3.1875 C-0.8275 3.6825 -0.8275 3.6825 -37.1875 4.1875 C-37.1875 4.5175 -37.1875 4.8475 -37.1875 5.1875 C-41.8075 5.1875 -46.4275 5.1875 -51.1875 5.1875 C-51.1875 5.8475 -51.1875 6.5075 -51.1875 7.1875 C-54.4875 7.1875 -57.7875 7.1875 -61.1875 7.1875 C-60.6925 8.6725 -60.6925 8.6725 -60.1875 10.1875 C-60.5175 11.8375 -60.8475 13.4875 -61.1875 15.1875 C-34.7875 15.1875 -8.3875 15.1875 18.8125 15.1875 C18.8125 15.8475 18.8125 16.5075 18.8125 17.1875 C21.1225 17.1875 23.4325 17.1875 25.8125 17.1875 C26.1425 17.8475 26.4725 18.5075 26.8125 19.1875 C24.7288691 19.04598172 22.64560062 18.89912064 20.5625 18.75 C19.40234375 18.66878906 18.2421875 18.58757812 17.046875 18.50390625 C13.8125 18.1875 13.8125 18.1875 11.95066833 17.67680359 C9.37362931 17.08706777 7.01174246 17.05275626 4.36743164 17.04223633 C3.27431168 17.03585648 2.18119171 17.02947662 1.0549469 17.02290344 C-0.12720901 17.02179062 -1.30936493 17.0206778 -2.52734375 17.01953125 C-3.75924942 17.01620285 -4.99115509 17.01287445 -6.26039124 17.00944519 C-8.87891263 17.00437652 -11.4974405 17.00203685 -14.1159668 17.00219727 C-18.05069856 17.00231682 -21.98523623 16.98196819 -25.91992188 16.96289062 C-46.52060052 16.91645079 -66.39580819 18.53888776 -86.71582031 21.79638672 C-89.22256102 22.19304798 -91.73165888 22.56952996 -94.2421875 22.94140625 C-102.16912361 24.13013629 -109.83830203 25.52986477 -117.5859375 27.625 C-121.52548902 28.47679492 -125.17267217 28.38824139 -129.1875 28.1875 C-129.1875 27.5275 -129.1875 26.8675 -129.1875 26.1875 C-102.91893268 14.0361356 -72.94281494 5.45709312 -44.1875 2.1875 C-43.02468506 2.04997314 -43.02468506 2.04997314 -41.83837891 1.90966797 C-27.89719673 0.32428435 -14.01508745 -0.00099257 0 0 Z " fill="#2CA82A" transform="translate(160.1875,280.8125)"/>
<path d="M0 0 C2.5 0.5 2.5 0.5 4.13000488 2.09474182 C5.97934269 5.34156718 5.89490232 7.75428653 5.91992188 11.48413086 C5.92839142 12.17894058 5.93686096 12.87375031 5.94558716 13.58961487 C5.9689455 15.88154511 5.96997967 18.17280359 5.96875 20.46484375 C5.97585226 22.06140918 5.98355136 23.65797205 5.99182129 25.25453186 C6.00526333 28.59936622 6.00683616 31.94396456 6.00097656 35.28881836 C5.99508021 39.57089289 6.02566923 43.85183369 6.06609344 48.13368893 C6.09196899 51.43060892 6.09484806 54.72725585 6.09120178 58.02426338 C6.09289315 59.60270602 6.10253747 61.18116124 6.12034607 62.75950432 C6.14253573 64.96926169 6.13283788 67.17672371 6.11523438 69.38647461 C6.11728882 70.642379 6.11934326 71.89828339 6.12145996 73.19224548 C5.34137771 77.34427579 3.68920668 78.83699661 0.5 81.5 C-4.375 78.75 -4.375 78.75 -5.5 76.5 C-5.60749907 74.24427148 -5.64892009 71.98530632 -5.66113281 69.72705078 C-5.66609772 69.03092682 -5.67106262 68.33480286 -5.67617798 67.61758423 C-5.69080649 65.31015033 -5.69760272 63.00278519 -5.703125 60.6953125 C-5.70887591 59.09349566 -5.71463365 57.49167885 -5.72039795 55.88986206 C-5.73090991 52.52894774 -5.73675129 49.16805736 -5.74023438 45.80712891 C-5.74571943 41.50054885 -5.76974665 37.19428493 -5.79820633 32.88780403 C-5.81683034 29.57810543 -5.82203818 26.268483 -5.82357025 22.95873642 C-5.82659788 21.37110541 -5.83463015 19.78347578 -5.84775543 18.19589615 C-5.86481144 15.9742656 -5.86293721 13.75340775 -5.85644531 11.53173828 C-5.86009094 10.26758087 -5.86373657 9.00342346 -5.86749268 7.70095825 C-5.37850639 3.4417586 -4.38660873 0.87732175 0 0 Z " fill="#28AD22" transform="translate(243.5,69.5)"/>
<path d="M0 0 C0.556875 0.391875 1.11375 0.78375 1.6875 1.1875 C2.06447071 6.08100657 1.37916959 8.33445683 -1.625 12.1875 C-2.35589844 13.14011719 -3.08679688 14.09273437 -3.83984375 15.07421875 C-4.65582031 16.10160156 -5.47179687 17.12898438 -6.3125 18.1875 C-7.18922545 19.29784292 -8.0655164 20.40852905 -8.94140625 21.51953125 C-10.32523928 23.27409149 -11.70974801 25.02804966 -13.09838867 26.77880859 C-16.33223791 30.87557471 -19.42204882 35.05289513 -22.4375 39.3125 C-22.84564941 39.88548828 -23.25379883 40.45847656 -23.67431641 41.04882812 C-25.30454846 43.34038687 -26.93139591 45.63304114 -28.52441406 47.95068359 C-29.68904644 49.64465132 -30.87390873 51.3227938 -32.0625 53 C-32.73796875 53.97582031 -33.4134375 54.95164063 -34.109375 55.95703125 C-36.82535353 58.70671873 -38.48680159 59.11955727 -42.3125 59.1875 C-44.3125 57.1875 -44.3125 57.1875 -44.76171875 55.01171875 C-44.10149305 50.86090848 -41.68427535 48.19435479 -39.125 45 C-38.01523866 43.57031942 -36.90722765 42.13927884 -35.80078125 40.70703125 C-35.22408691 39.96533691 -34.64739258 39.22364258 -34.05322266 38.45947266 C-31.22122605 34.76318088 -28.5209749 30.97469438 -25.8125 27.1875 C-23.64875389 24.18538768 -21.48042615 21.18659447 -19.3125 18.1875 C-18.76464844 17.42711426 -18.21679688 16.66672852 -17.65234375 15.88330078 C-16.04868135 13.6649959 -14.43244014 11.45643533 -12.8125 9.25 C-12.09223633 8.24743164 -12.09223633 8.24743164 -11.35742188 7.22460938 C-4.77183149 -1.67658944 -4.77183149 -1.67658944 0 0 Z " fill="#29A827" transform="translate(352.3125,112.8125)"/>
<path d="M0 0 C7.84194906 2.0682941 15.20598836 5.57735872 22.625 8.8125 C31.42194679 12.63171192 40.22412176 16.37535875 49.21484375 19.71875 C52.27208516 21.12516681 54.54346336 22.70425485 57 25 C57.4375 27.625 57.4375 27.625 57 30 C55 32 55 32 51.2890625 32.01171875 C44.20221474 31.04198429 37.82584565 27.74433595 31.375 24.8125 C29.46017298 23.95440628 27.5437688 23.09996519 25.62652588 22.24728394 C24.35035308 21.67917661 23.07540238 21.10831594 21.80169678 20.53469849 C18.52209833 19.06864244 15.23209264 17.68372709 11.87207031 16.41162109 C11.19826324 16.15458908 10.52445618 15.89755707 9.83023071 15.63273621 C7.96756041 14.93045345 6.09846278 14.24528605 4.22900391 13.5612793 C0.67032425 11.84059607 -1.4776182 10.02858215 -4 7 C-4 4.3125 -4 4.3125 -3 2 C-2.01 1.34 -1.02 0.68 0 0 Z " fill="#31A62F" transform="translate(70,197)"/>
<path d="M0 0 C7.42221144 3.71110572 11.98565296 11.16842281 16.8125 17.6875 C17.8697479 19.10680343 18.9270399 20.52607402 19.984375 21.9453125 C20.49806641 22.63657227 21.01175781 23.32783203 21.54101562 24.04003906 C23.53758709 26.72218025 25.55051221 29.3919119 27.5625 32.0625 C29.04326266 34.04047287 30.5223029 36.01973587 32 38 C32.47421387 38.63421875 32.94842773 39.2684375 33.43701172 39.921875 C34.96242335 41.96550733 36.48184639 44.01347188 38 46.0625 C38.48154541 46.70646729 38.96309082 47.35043457 39.45922852 48.01391602 C41.41182724 50.65977007 42.95304186 52.85912558 44 56 C42.5625 58.1875 42.5625 58.1875 41 60 C38.38225269 59.92300743 36.58729344 59.5635785 34.66381836 57.71777344 C30.50417724 52.70481626 26.57090376 47.54170659 22.6875 42.3125 C22.02741943 41.42836426 21.36733887 40.54422852 20.68725586 39.63330078 C18.78917886 37.09058947 16.89399973 34.54574922 15 32 C13.35580052 29.79043254 11.70996208 27.58213996 10.0625 25.375 C9.381875 24.46234375 8.70125 23.5496875 8 22.609375 C5.31298734 19.10366317 2.49038454 15.71596727 -0.37109375 12.3515625 C-2.22758647 9.67144591 -3.10512929 7.1208054 -4 4 C-2.68 2.68 -1.36 1.36 0 0 Z " fill="#2DA62B" transform="translate(134,112)"/>
<path d="M0 0 C2 2 2 2 2.375 4.375 C1.86753791 7.92723461 0.76012575 8.71393128 -2 11 C-4.61064223 12.36677595 -7.31768974 13.42974512 -10.0625 14.49609375 C-10.84963379 14.81151627 -11.63676758 15.12693878 -12.44775391 15.45191956 C-14.96142725 16.45682681 -17.48043113 17.44747979 -20 18.4375 C-22.48295656 19.42453933 -24.96475791 20.41444443 -27.4465332 21.40444946 C-29.05734572 22.04562879 -30.66915593 22.68430767 -32.28198242 23.32040405 C-35.77104859 24.69815256 -39.24775059 26.08924733 -42.6875 27.58642578 C-43.739375 28.04388184 -44.79125 28.50133789 -45.875 28.97265625 C-46.75929688 29.368479 -47.64359375 29.76430176 -48.5546875 30.17211914 C-51.23882071 31.08085473 -53.18784674 31.34702786 -56 31 C-57.8125 28.5 -57.8125 28.5 -59 26 C-56.26367757 22.17066612 -54.12132063 20.22207686 -49.765625 18.45703125 C-48.72752686 18.02753174 -47.68942871 17.59803223 -46.61987305 17.15551758 C-45.50781494 16.71232178 -44.39575684 16.26912598 -43.25 15.8125 C-40.90749721 14.85430081 -38.56505065 13.89596413 -36.22265625 12.9375 C-35.02785645 12.45410156 -33.83305664 11.97070312 -32.60205078 11.47265625 C-29.09232305 10.0377452 -25.60465597 8.55968417 -22.12109375 7.0625 C-21.03860352 6.59996826 -19.95611328 6.13743652 -18.84082031 5.66088867 C-16.77672606 4.77826305 -14.7147786 3.8905958 -12.65527344 2.99731445 C-11.72102539 2.6024585 -10.78677734 2.20760254 -9.82421875 1.80078125 C-9.01041748 1.45184814 -8.19661621 1.10291504 -7.3581543 0.7434082 C-4.73480551 -0.08360257 -2.73395699 -0.27951457 0 0 Z " fill="#2BA828" transform="translate(417,198)"/>
<path d="M0 0 C0.65786499 -0.00272919 1.31572998 -0.00545837 1.99353027 -0.00827026 C13.81881906 -0.01563368 25.87233252 1.06116626 36.625 6.4375 C36.295 7.4275 35.965 8.4175 35.625 9.4375 C34.635 9.4375 33.645 9.4375 32.625 9.4375 C32.625 10.0975 32.625 10.7575 32.625 11.4375 C28.53781305 11.67792276 25.44820557 10.86008812 21.625 9.4375 C21.625 10.0975 21.625 10.7575 21.625 11.4375 C17.995 11.4375 14.365 11.4375 10.625 11.4375 C10.625 10.7775 10.625 10.1175 10.625 9.4375 C13.925 9.4375 17.225 9.4375 20.625 9.4375 C20.625 8.7775 20.625 8.1175 20.625 7.4375 C17.655 7.4375 14.685 7.4375 11.625 7.4375 C11.625 6.4475 11.625 5.4575 11.625 4.4375 C5.025 4.1075 -1.575 3.7775 -8.375 3.4375 C-8.375 4.0975 -8.375 4.7575 -8.375 5.4375 C-7.385 5.4375 -6.395 5.4375 -5.375 5.4375 C-5.375 6.0975 -5.375 6.7575 -5.375 7.4375 C-0.425 7.4375 4.525 7.4375 9.625 7.4375 C5.41768659 9.54115671 1.83633796 10.08180135 -2.75 10.5625 C-3.4925 10.64886719 -4.235 10.73523438 -5 10.82421875 C-9.14635697 11.28573905 -13.19604023 11.53036577 -17.375 11.4375 C-14.375 9.4375 -14.375 9.4375 -11.375 8.4375 C-12.695 8.1075 -14.015 7.7775 -15.375 7.4375 C-15.375 6.7775 -15.375 6.1175 -15.375 5.4375 C-16.695 5.4375 -18.015 5.4375 -19.375 5.4375 C-19.375 6.0975 -19.375 6.7575 -19.375 7.4375 C-22.015 7.4375 -24.655 7.4375 -27.375 7.4375 C-27.375 6.7775 -27.375 6.1175 -27.375 5.4375 C-26.055 5.1075 -24.735 4.7775 -23.375 4.4375 C-23.375 3.7775 -23.375 3.1175 -23.375 2.4375 C-15.55430228 0.32540268 -8.0806586 0.01577061 0 0 Z " fill="#26A726" transform="translate(242.375,180.5625)"/>
<path d="M0 0 C-0.66 0.33 -1.32 0.66 -2 1 C-1.01 1.66 -0.02 2.32 1 3 C0.67 3.99 0.34 4.98 0 6 C-4.29 6 -8.58 6 -13 6 C-13 6.66 -13 7.32 -13 8 C-13.99 8 -14.98 8 -16 8 C-16 7.34 -16 6.68 -16 6 C-16.99 6 -17.98 6 -19 6 C-19 6.66 -19 7.32 -19 8 C-19.61488281 8.03738281 -20.22976562 8.07476562 -20.86328125 8.11328125 C-22.07564453 8.21189453 -22.07564453 8.21189453 -23.3125 8.3125 C-24.11300781 8.37050781 -24.91351563 8.42851562 -25.73828125 8.48828125 C-28.44004442 9.099561 -29.08036554 10.07555443 -31 12 C-37.9226281 14.52582377 -44.68216583 15.36589171 -52 15 C-52 14.34 -52 13.68 -52 13 C-24.33673519 0.49153623 -24.33673519 0.49153623 -11 2 C-11 1.34 -11 0.68 -11 0 C-3.57142857 -1.28571429 -3.57142857 -1.28571429 0 0 Z " fill="#29A826" transform="translate(83,294)"/>
<path d="M0 0 C0.84626953 -0.00090637 1.69253906 -0.00181274 2.56445312 -0.00274658 C4.99487904 -0.00245151 7.42508069 0.00648212 9.85546875 0.01953125 C10.58473068 0.02073471 11.31399261 0.02193817 12.06535339 0.0231781 C15.77821541 0.05732734 19.19618428 0.35638112 22.8125 1.1875 C24.89427607 1.33619829 26.97799943 1.45876893 29.0625 1.5625 C37.43865196 2.10490474 45.5790617 3.60261297 53.8125 5.1875 C53.8125 5.5175 53.8125 5.8475 53.8125 6.1875 C47.0625 7.3125 47.0625 7.3125 44.8125 6.1875 C43.10886178 5.96127919 41.39921299 5.77861527 39.6875 5.625 C38.77742188 5.54121094 37.86734375 5.45742188 36.9296875 5.37109375 C36.23101562 5.31050781 35.53234375 5.24992187 34.8125 5.1875 C34.8125 4.5275 34.8125 3.8675 34.8125 3.1875 C-0.8275 3.6825 -0.8275 3.6825 -37.1875 4.1875 C-37.1875 4.5175 -37.1875 4.8475 -37.1875 5.1875 C-41.8075 5.1875 -46.4275 5.1875 -51.1875 5.1875 C-51.1875 5.8475 -51.1875 6.5075 -51.1875 7.1875 C-53.4975 7.1875 -55.8075 7.1875 -58.1875 7.1875 C-58.1875 6.1975 -58.1875 5.2075 -58.1875 4.1875 C-38.85608333 0.98828668 -19.56590644 -0.00138569 0 0 Z " fill="#3BA042" transform="translate(160.1875,280.8125)"/>
<path d="M0 0 C2.2620011 3.6143042 2.25333705 6.6384001 2.25878906 10.84814453 C2.2622937 11.52826599 2.26579834 12.20838745 2.26940918 12.90911865 C2.27819068 15.15045464 2.27239148 17.39147347 2.265625 19.6328125 C2.26697237 21.19172221 2.2689135 22.75063152 2.27142334 24.30953979 C2.27436948 27.57277436 2.27009224 30.83589929 2.26074219 34.09912109 C2.24932895 38.28696442 2.25592207 42.47455193 2.26788712 46.66238594 C2.27510339 49.8793634 2.27281921 53.09627986 2.26763153 56.31325912 C2.26629537 57.8578685 2.2679416 59.40248338 2.27259064 60.94708633 C2.2776542 63.10175578 2.26994934 65.25600639 2.25878906 67.41064453 C2.25719788 68.63768097 2.25560669 69.86471741 2.25396729 71.12893677 C2 74 2 74 0 76 C-1.46671702 73.06656597 -1.12734055 70.4704509 -1.12939453 67.1953125 C-1.13114685 66.49597595 -1.13289917 65.7966394 -1.13470459 65.07611084 C-1.13911423 62.75904882 -1.13618823 60.44206283 -1.1328125 58.125 C-1.13348579 56.51839178 -1.13445603 54.91178365 -1.13571167 53.30517578 C-1.13718744 49.93586254 -1.13503796 46.56657579 -1.13037109 43.19726562 C-1.12467387 38.87266939 -1.12795352 34.54813522 -1.13394356 30.22354126 C-1.13755242 26.90535004 -1.13640908 23.58717359 -1.13381577 20.26898193 C-1.1331474 18.67413323 -1.13397178 17.07928319 -1.13629532 15.48443604 C-1.13882716 13.25781689 -1.13497373 11.03129907 -1.12939453 8.8046875 C-1.12859894 7.53608887 -1.12780334 6.26749023 -1.12698364 4.96044922 C-1 2 -1 2 0 0 Z " fill="#2AA02E" transform="translate(239,72)"/>
<path d="M0 0 C1.71858504 0.97907269 3.39265888 2.03536418 5.05859375 3.1015625 C5.05859375 4.4215625 5.05859375 5.7415625 5.05859375 7.1015625 C7.36859375 7.7615625 9.67859375 8.4215625 12.05859375 9.1015625 C13.18359375 14.8515625 13.18359375 14.8515625 12.05859375 17.1015625 C11.06859375 17.1015625 10.07859375 17.1015625 9.05859375 17.1015625 C9.05859375 16.4415625 9.05859375 15.7815625 9.05859375 15.1015625 C9.71859375 15.1015625 10.37859375 15.1015625 11.05859375 15.1015625 C11.05859375 14.4415625 11.05859375 13.7815625 11.05859375 13.1015625 C9.73859375 13.1015625 8.41859375 13.1015625 7.05859375 13.1015625 C7.05859375 13.7615625 7.05859375 14.4215625 7.05859375 15.1015625 C3.71609746 14.50468816 1.59423033 13.36552373 -0.94140625 11.1015625 C-0.94140625 10.4415625 -0.94140625 9.7815625 -0.94140625 9.1015625 C-2.26140625 9.1015625 -3.58140625 9.1015625 -4.94140625 9.1015625 C-4.94140625 8.4415625 -4.94140625 7.7815625 -4.94140625 7.1015625 C-5.70453125 7.1428125 -6.46765625 7.1840625 -7.25390625 7.2265625 C-9.94140625 7.1015625 -9.94140625 7.1015625 -12.94140625 5.1015625 C-12.69140625 3.2265625 -12.69140625 3.2265625 -11.94140625 1.1015625 C-8.31515988 -1.58454592 -4.0954955 -1.89529973 0 0 Z " fill="#28AA24" transform="translate(287.94140625,190.8984375)"/>
<path d="M0 0 C1.4163469 0.33818172 2.82899788 0.69208892 4.23828125 1.05859375 C4.98198975 1.24260742 5.72569824 1.42662109 6.49194336 1.61621094 C14.27621682 3.58832532 21.92393239 5.9914489 29.55078125 8.49609375 C29.55078125 9.48609375 29.55078125 10.47609375 29.55078125 11.49609375 C26.65466581 11.35474648 23.75897315 11.20817845 20.86328125 11.05859375 C20.04666016 11.01927734 19.23003906 10.97996094 18.38867188 10.93945312 C17.19467773 10.87661133 17.19467773 10.87661133 15.9765625 10.8125 C15.24864502 10.77584229 14.52072754 10.73918457 13.77075195 10.70141602 C11.55078125 10.49609375 11.55078125 10.49609375 9.078125 9.99609375 C6.58175417 9.50222131 4.22738916 9.29439217 1.6875 9.1796875 C0.80126953 9.13779297 -0.08496094 9.09589844 -0.99804688 9.05273438 C-1.91005859 9.01341797 -2.82207031 8.97410156 -3.76171875 8.93359375 C-4.69306641 8.89041016 -5.62441406 8.84722656 -6.58398438 8.80273438 C-8.87226329 8.6971215 -11.16064247 8.59501623 -13.44921875 8.49609375 C-13.77921875 7.50609375 -14.10921875 6.51609375 -14.44921875 5.49609375 C-12.13921875 5.49609375 -9.82921875 5.49609375 -7.44921875 5.49609375 C-7.44921875 6.15609375 -7.44921875 6.81609375 -7.44921875 7.49609375 C-4.47921875 7.49609375 -1.50921875 7.49609375 1.55078125 7.49609375 C1.55078125 6.83609375 1.55078125 6.17609375 1.55078125 5.49609375 C2.21078125 5.16609375 2.87078125 4.83609375 3.55078125 4.49609375 C0.25078125 4.16609375 -3.04921875 3.83609375 -6.44921875 3.49609375 C-6.44921875 2.83609375 -6.44921875 2.17609375 -6.44921875 1.49609375 C-3.44921875 -0.50390625 -3.44921875 -0.50390625 0 0 Z " fill="#34A731" transform="translate(417.44921875,300.50390625)"/>
<path d="M0 0 C2.3125 -0.25 2.3125 -0.25 5 0 C7.44199396 2.34886899 7.97461205 3.79525512 8.39440918 7.18077087 C8.40282837 8.43587967 8.41124756 9.69098846 8.41992188 10.98413086 C8.42839142 11.67894058 8.43686096 12.37375031 8.44558716 13.08961487 C8.4689455 15.38154511 8.46997967 17.67280359 8.46875 19.96484375 C8.47585226 21.56140918 8.48355136 23.15797205 8.49182129 24.75453186 C8.50526333 28.09936622 8.50683616 31.44396456 8.50097656 34.78881836 C8.49508021 39.07089289 8.52566923 43.35183369 8.56609344 47.63368893 C8.59196899 50.93060892 8.59484806 54.22725585 8.59120178 57.52426338 C8.59289315 59.10270602 8.60253747 60.68116124 8.62034607 62.25950432 C8.64253573 64.46926169 8.63283788 66.67672371 8.61523438 68.88647461 C8.61728882 70.142379 8.61934326 71.39828339 8.62145996 72.69224548 C7.84137771 76.84427579 6.18920668 78.33699661 3 81 C1.68 80.34 0.36 79.68 -1 79 C1.07553648 78.4465236 2.84365964 78 5 78 C5 53.25 5 28.5 5 3 C2.03 2.505 2.03 2.505 -1 2 C-0.67 1.34 -0.34 0.68 0 0 Z " fill="#2DA431" transform="translate(241,70)"/>
<path d="M0 0 C3.0390625 0.2421875 3.0390625 0.2421875 6.625 0.875 C8.40777344 1.18050781 8.40777344 1.18050781 10.2265625 1.4921875 C11.14179687 1.65976563 12.05703125 1.82734375 13 2 C12.67 3.32 12.34 4.64 12 6 C11.01 6 10.02 6 9 6 C9 6.66 9 7.32 9 8 C10.65 7.34 12.3 6.68 14 6 C14 6.66 14 7.32 14 8 C15.32 8 16.64 8 18 8 C18 8.66 18 9.32 18 10 C19.670625 9.9690625 19.670625 9.9690625 21.375 9.9375 C25 10 25 10 27 11 C27 11.99 27 12.98 27 14 C20.71739294 14.23268915 15.11980533 13.40454548 9 12 C9 11.34 9 10.68 9 10 C8.34 10 7.68 10 7 10 C7 9.34 7 8.68 7 8 C6.01 8 5.02 8 4 8 C4 7.01 4 6.02 4 5 C1.03 4.505 1.03 4.505 -2 4 C-2 2 -2 2 0 0 Z " fill="#26AA22" transform="translate(85,206)"/>
<path d="M0 0 C-1.625 2 -1.625 2 -4 4 C-7.25 4.25 -7.25 4.25 -10 4 C-10 4.66 -10 5.32 -10 6 C-10.99 6 -11.98 6 -13 6 C-13 6.66 -13 7.32 -13 8 C-12.01 8.33 -11.02 8.66 -10 9 C-19.03209209 14.02031918 -19.03209209 14.02031918 -23 13 C-24.8125 10.5 -24.8125 10.5 -26 8 C-25 6 -25 6 -23 4 C-20.24627091 3.63066355 -17.79634339 3.81663322 -15 4 C-15 3.34 -15 2.68 -15 2 C-14.34 2 -13.68 2 -13 2 C-13 2.66 -13 3.32 -13 4 C-12.566875 3.525625 -12.13375 3.05125 -11.6875 2.5625 C-8.22931657 -0.63952169 -4.46142071 -0.08417775 0 0 Z " fill="#2FA62D" transform="translate(384,216)"/>
<path d="M0 0 C-3.625 3 -3.625 3 -7 3 C-7.33 4.32 -7.66 5.64 -8 7 C-5.36 7.66 -2.72 8.32 0 9 C0 9.66 0 10.32 0 11 C1.32 11 2.64 11 4 11 C4 11.66 4 12.32 4 13 C6.475 13.99 6.475 13.99 9 15 C8.34 15.66 7.68 16.32 7 17 C5.98421875 16.46890625 4.9684375 15.9378125 3.921875 15.390625 C-8.22027287 9.12251524 -19.13156542 4.49178846 -33 4 C-33 3.67 -33 3.34 -33 3 C-28.38 3 -23.76 3 -19 3 C-19 2.34 -19 1.68 -19 1 C-14.91281305 0.75957724 -11.82320557 1.57741188 -8 3 C-8 2.34 -8 1.68 -8 1 C-4.93251126 -0.86240388 -3.40254489 -1.2151946 0 0 Z " fill="#34A436" transform="translate(283,189)"/>
<path d="M0 0 C0 0.66 0 1.32 0 2 C0.928125 1.938125 1.85625 1.87625 2.8125 1.8125 C6 2 6 2 7.8125 3.0625 C9.55729603 5.90927247 9.69042148 8.71846765 10 12 C8.68 12 7.36 12 6 12 C6 11.34 6 10.68 6 10 C4.02 10.66 2.04 11.32 0 12 C-1.37562854 10.71034824 -2.70766393 9.37310707 -4 8 C-4 7.34 -4 6.68 -4 6 C-3.34 6 -2.68 6 -2 6 C-1.67 4.68 -1.34 3.36 -1 2 C-1.66 2 -2.32 2 -3 2 C-3.33 2.66 -3.66 3.32 -4 4 C-4 3.01 -4 2.02 -4 1 C-2 0 -2 0 0 0 Z " fill="#2BA827" transform="translate(307,208)"/>
<path d="M0 0 C1.65 0 3.3 0 5 0 C3.92598892 2.91517292 3.22189824 4.77810176 1 7 C1.33 7.99 1.66 8.98 2 10 C0.68 10 -0.64 10 -2 10 C-2 10.66 -2 11.32 -2 12 C-3.32 12 -4.64 12 -6 12 C-6 11.34 -6 10.68 -6 10 C-5.01 10 -4.02 10 -3 10 C-3 9.34 -3 8.68 -3 8 C-4.32 8 -5.64 8 -7 8 C-7 8.66 -7 9.32 -7 10 C-9.97 10.66 -12.94 11.32 -16 12 C-15.67 11.34 -15.34 10.68 -15 10 C-14.34 10 -13.68 10 -13 10 C-12.67 9.01 -12.34 8.02 -12 7 C-8.535 6.505 -8.535 6.505 -5 6 C-4.67 5.01 -4.34 4.02 -4 3 C-3.01 3.33 -2.02 3.66 -1 4 C-0.67 2.68 -0.34 1.36 0 0 Z " fill="#24AA21" transform="translate(206,188)"/>
<path d="M0 0 C2.09350689 3.4019487 2.17942163 6.05272412 2 10 C1.34 10 0.68 10 0 10 C0 31.12 0 52.24 0 74 C-0.33 74 -0.66 74 -1 74 C-1.02313952 64.64691135 -1.04092333 55.29383251 -1.05181217 45.94072151 C-1.05703746 41.5980033 -1.06412873 37.25530462 -1.07543945 32.91259766 C-1.08628085 28.72401613 -1.09227951 24.53545344 -1.09487724 20.34685898 C-1.09672922 18.74642515 -1.10034552 17.1459924 -1.10573006 15.54556656 C-1.1129571 13.30916339 -1.11399023 11.07283869 -1.11352539 8.83642578 C-1.115746 7.56179474 -1.11796661 6.2871637 -1.12025452 4.97390747 C-1 2 -1 2 0 0 Z " fill="#30A735" transform="translate(239,72)"/>
<path d="M0 0 C20.46 0 40.92 0 62 0 C62 0.66 62 1.32 62 2 C64.31 2 66.62 2 69 2 C69.495 2.99 69.495 2.99 70 4 C67.9163691 3.85848172 65.83310062 3.71162064 63.75 3.5625 C62.58984375 3.48128906 61.4296875 3.40007812 60.234375 3.31640625 C57 3 57 3 55.13031006 2.49305725 C52.60438378 1.90843519 50.27347787 1.8378913 47.68066406 1.79467773 C46.61986633 1.77473251 45.5590686 1.75478729 44.46612549 1.73423767 C42.75812775 1.70916893 42.75812775 1.70916893 41.015625 1.68359375 C39.84489441 1.66281265 38.67416382 1.64203156 37.46795654 1.62062073 C33.72869731 1.55524372 29.98936795 1.49629509 26.25 1.4375 C23.7148365 1.39430353 21.17968009 1.35068888 18.64453125 1.30664062 C12.4297616 1.19957441 6.21492222 1.0977859 0 1 C0 0.67 0 0.34 0 0 Z " fill="#44A051" transform="translate(117,296)"/>
<path d="M0 0 C0 0.33 0 0.66 0 1 C-1.15628906 1.09087891 -1.15628906 1.09087891 -2.3359375 1.18359375 C-3.84027344 1.30927734 -3.84027344 1.30927734 -5.375 1.4375 C-6.87160156 1.55931641 -6.87160156 1.55931641 -8.3984375 1.68359375 C-10.97927613 1.84965626 -10.97927613 1.84965626 -13 3 C-14.66565749 3.15222973 -16.33656496 3.24917215 -18.0078125 3.31640625 C-18.99394531 3.35830078 -19.98007812 3.40019531 -20.99609375 3.44335938 C-22.02863281 3.48267578 -23.06117188 3.52199219 -24.125 3.5625 C-25.68541016 3.62727539 -25.68541016 3.62727539 -27.27734375 3.69335938 C-29.85142528 3.7996288 -32.42560508 3.90166583 -35 4 C-35 4.33 -35 4.66 -35 5 C-41.6 5 -48.2 5 -55 5 C-55 4.67 -55 4.34 -55 4 C-36.90628085 1.1933835 -18.3178097 -0.59949195 0 0 Z " fill="#419E4D" transform="translate(350,289)"/>
<path d="M0 0 C1.65 0 3.3 0 5 0 C5 0.66 5 1.32 5 2 C5.66 2 6.32 2 7 2 C7 3.32 7 4.64 7 6 C7.66 6 8.32 6 9 6 C9.33 5.34 9.66 4.68 10 4 C10.93065133 6.60582371 11.14917407 7.64198224 10.0625 10.25 C9.711875 10.8275 9.36125 11.405 9 12 C7.125 11.8125 7.125 11.8125 5 11 C4.33333333 9.33333333 3.66666667 7.66666667 3 6 C0.95894361 5.11306697 0.95894361 5.11306697 -1 5 C-0.67 3.35 -0.34 1.7 0 0 Z " fill="#20A425" transform="translate(148,136)"/>
<path d="M0 0 C0.66 0.66 1.32 1.32 2 2 C0.68 2 -0.64 2 -2 2 C-2 2.66 -2 3.32 -2 4 C-6.95 4.33 -11.9 4.66 -17 5 C-17 5.33 -17 5.66 -17 6 C-20.63 6 -24.26 6 -28 6 C-23.57666812 3.78833406 -19.31877448 2.57819548 -14.5625 1.3125 C-13.71623047 1.07466797 -12.86996094 0.83683594 -11.99804688 0.59179688 C-4.03964379 -1.53335227 -4.03964379 -1.53335227 0 0 Z " fill="#35A435" transform="translate(271,300)"/>
<path d="M0 0 C2.09350689 3.4019487 2.17942163 6.05272412 2 10 C3.32 10 4.64 10 6 10 C6.2236337 11.41433206 6.42826476 12.83167618 6.625 14.25 C6.74101562 15.03890625 6.85703125 15.8278125 6.9765625 16.640625 C7.00319395 19.32152459 6.36592084 20.72694089 5 23 C4.01 22.67 3.02 22.34 2 22 C2 18.7 2 15.4 2 12 C1.34 12 0.68 12 0 12 C0 10.02 0 8.04 0 6 C-0.66 5.67 -1.32 5.34 -2 5 C-1.34 3.35 -0.68 1.7 0 0 Z " fill="#33A92E" transform="translate(155,236)"/>
<path d="M0 0 C1.125 3.75 1.125 3.75 0 6 C0.66 6 1.32 6 2 6 C2 5.34 2 4.68 2 4 C2.66 4 3.32 4 4 4 C4 5.32 4 6.64 4 8 C2.68 8 1.36 8 0 8 C0 9.32 0 10.64 0 12 C0.66 12 1.32 12 2 12 C2.125 14.875 2.125 14.875 2 18 C1.34 18.66 0.68 19.32 0 20 C0 18.02 0 16.04 0 14 C-1.32 14 -2.64 14 -4 14 C-4.33 10.7 -4.66 7.4 -5 4 C-4.67 4.66 -4.34 5.32 -4 6 C-3.34 6 -2.68 6 -2 6 C-2 4.68 -2 3.36 -2 2 C-1.34 2 -0.68 2 0 2 C0 1.34 0 0.68 0 0 Z " fill="#24AA22" transform="translate(161,232)"/>
<path d="M0 0 C2.31 0 4.62 0 7 0 C7 0.66 7 1.32 7 2 C9.64 2 12.28 2 15 2 C14.01 2.495 14.01 2.495 13 3 C13 3.99 13 4.98 13 6 C13.99 6 14.98 6 16 6 C16 6.66 16 7.32 16 8 C16.66 8 17.32 8 18 8 C17.67 8.66 17.34 9.32 17 10 C8.585 6.535 8.585 6.535 0 3 C0 2.01 0 1.02 0 0 Z " fill="#30A62F" transform="translate(76,208)"/>
<path d="M0 0 C3.32921832 4.15447445 4.92496042 8.4843576 6.75 13.4375 C7.07871094 14.28376953 7.40742188 15.13003906 7.74609375 16.00195312 C10.59638303 23.68089703 10.59638303 23.68089703 9 28 C8.67 28 8.34 28 8 28 C7.67 25.03 7.34 22.06 7 19 C6.34 19 5.68 19 5 19 C4.731875 18.278125 4.46375 17.55625 4.1875 16.8125 C3.11798041 13.98634255 3.11798041 13.98634255 1.375 11.75 C-0.57840873 7.84318254 -0.25231546 4.28936274 0 0 Z " fill="#2DA331" transform="translate(330,235)"/>
<path d="M0 0 C-0.99 0.66 -1.98 1.32 -3 2 C-1.35 2.33 0.3 2.66 2 3 C2 3.33 2 3.66 2 4 C-4.14778871 5.6277833 -9.64012196 6.20190089 -16 6 C-16 5.34 -16 4.68 -16 4 C-15.37351562 3.72285156 -14.74703125 3.44570313 -14.1015625 3.16015625 C-13.28429688 2.79792969 -12.46703125 2.43570312 -11.625 2.0625 C-10.81289063 1.70285156 -10.00078125 1.34320313 -9.1640625 0.97265625 C-5.40922194 -0.71498869 -4.09274987 -0.96933549 0 0 Z " fill="#33A338" transform="translate(47,303)"/>
<path d="M0 0 C-0.33 0.66 -0.66 1.32 -1 2 C-3.265625 2.37890625 -3.265625 2.37890625 -6.25 2.5625 C-7.33410156 2.63726562 -8.41820312 2.71203125 -9.53515625 2.7890625 C-11.25025391 2.89347656 -11.25025391 2.89347656 -13 3 C-20.53871096 3.4717154 -27.66813418 4.13596632 -35 6 C-35.33 5.34 -35.66 4.68 -36 4 C-24.40884706 -0.19892603 -12.1752651 -0.31085783 0 0 Z " fill="#35A13E" transform="translate(251,190)"/>
<path d="M0 0 C0.33 1.32 0.66 2.64 1 4 C0.01 4.33 -0.98 4.66 -2 5 C-2 6.65 -2 8.3 -2 10 C1.465 9.505 1.465 9.505 5 9 C3.875 11.4375 3.875 11.4375 2 14 C-1.0625 14.9375 -1.0625 14.9375 -4 15 C-6 13 -6 13 -6.3125 10.64453125 C-5.93817363 7.47679437 -4.9968746 6.1419917 -3 3.6875 C-2.443125 2.99011719 -1.88625 2.29273438 -1.3125 1.57421875 C-0.6628125 0.79498047 -0.6628125 0.79498047 0 0 Z " fill="#2EA330" transform="translate(314,157)"/>
<path d="M0 0 C3.96 0 7.92 0 12 0 C12 0.33 12 0.66 12 1 C8.31425142 1.67659781 4.62616051 2.33947761 0.9375 3 C-0.10083984 3.19078125 -1.13917969 3.3815625 -2.20898438 3.578125 C-15.28940217 5.90353261 -15.28940217 5.90353261 -21 4 C-21 3.34 -21 2.68 -21 2 C-14.07 2 -7.14 2 0 2 C0 1.34 0 0.68 0 0 Z " fill="#39A23D" transform="translate(301,310)"/>
<path d="M0 0 C0.12375 0.5775 0.2475 1.155 0.375 1.75 C1.00648824 4.02335767 1.88858191 5.9253529 3 8 C3.66 8 4.32 8 5 8 C5 7.34 5 6.68 5 6 C5.66 6 6.32 6 7 6 C7.33 5.01 7.66 4.02 8 3 C9.1875 5.25 9.1875 5.25 10 8 C8.625 10.3125 8.625 10.3125 7 12 C3.33871248 11.79078357 1.52051181 10.85141649 -0.875 8.1875 C-3 5 -3 5 -2.9375 2.6875 C-2 1 -2 1 0 0 Z " fill="#31A330" transform="translate(168,160)"/>
<path d="M0 0 C0.99 0 1.98 0 3 0 C3 0.66 3 1.32 3 2 C3.99 2 4.98 2 6 2 C6 1.34 6 0.68 6 0 C11.61 0 17.22 0 23 0 C23 0.33 23 0.66 23 1 C21.98421875 1.12117188 20.9684375 1.24234375 19.921875 1.3671875 C13.39946302 2.15773469 6.9085024 2.9738687 0.4375 4.125 C-3.79857596 4.86472404 -7.70745301 5.19511577 -12 5 C-10.29171079 2.89366282 -9.47851584 2.06198392 -6.73828125 1.70703125 C-5.93777344 1.74183594 -5.13726562 1.77664063 -4.3125 1.8125 C-3.10013672 1.85310547 -3.10013672 1.85310547 -1.86328125 1.89453125 C-1.24839844 1.92933594 -0.63351563 1.96414063 0 2 C0 1.34 0 0.68 0 0 Z " fill="#39A040" transform="translate(64,300)"/>
<path d="M0 0 C0 0.66 0 1.32 0 2 C-0.66 2 -1.32 2 -2 2 C-2 2.66 -2 3.32 -2 4 C-1.34 4 -0.68 4 0 4 C0.33 4.99 0.66 5.98 1 7 C-0.32 7.33 -1.64 7.66 -3 8 C-3 6.68 -3 5.36 -3 4 C-4.60875 4.0928125 -4.60875 4.0928125 -6.25 4.1875 C-10.10866187 3.99456691 -11.28817788 3.60334924 -14 1 C-8.38372217 -1.98006579 -5.93642189 -2.30187787 0 0 Z " fill="#34A630" transform="translate(409,204)"/>
<path d="M0 0 C-1.625 2 -1.625 2 -4 4 C-7.25 4.25 -7.25 4.25 -10 4 C-10 4.66 -10 5.32 -10 6 C-10.99 6 -11.98 6 -13 6 C-13 6.66 -13 7.32 -13 8 C-13.66 8 -14.32 8 -15 8 C-15 7.34 -15 6.68 -15 6 C-16.32 6 -17.64 6 -19 6 C-19 5.34 -19 4.68 -19 4 C-17.68 4 -16.36 4 -15 4 C-15 3.34 -15 2.68 -15 2 C-14.34 2 -13.68 2 -13 2 C-13 2.66 -13 3.32 -13 4 C-12.566875 3.525625 -12.13375 3.05125 -11.6875 2.5625 C-8.22931657 -0.63952169 -4.46142071 -0.08417775 0 0 Z " fill="#22AA20" transform="translate(384,216)"/>
<path d="M0 0 C0.66 0 1.32 0 2 0 C2 1.98 2 3.96 2 6 C2.66 6 3.32 6 4 6 C4 7.98 4 9.96 4 12 C0.25 13.125 0.25 13.125 -2 12 C-2.17835515 7.45194365 -1.99785435 4.1205746 0 0 Z " fill="#24A428" transform="translate(153,242)"/>
<path d="M0 0 C0.66 0 1.32 0 2 0 C2 0.66 2 1.32 2 2 C3.65 2 5.3 2 7 2 C6.01 3.485 6.01 3.485 5 5 C7.475 5.99 7.475 5.99 10 7 C10 7.99 10 8.98 10 10 C8.68 10 7.36 10 6 10 C6 9.34 6 8.68 6 8 C4.68 8 3.36 8 2 8 C2 7.34 2 6.68 2 6 C1.34 6 0.68 6 0 6 C0 5.34 0 4.68 0 4 C-1.32 3.67 -2.64 3.34 -4 3 C-2.68 2.67 -1.36 2.34 0 2 C0 1.34 0 0.68 0 0 Z " fill="#21AA20" transform="translate(115,218)"/>
<path d="M0 0 C1.65 0.33 3.3 0.66 5 1 C5.33 1.99 5.66 2.98 6 4 C6.99 5.485 6.99 5.485 8 7 C6.68 7.99 5.36 8.98 4 10 C4 8.68 4 7.36 4 6 C3.34 6 2.68 6 2 6 C2 5.34 2 4.68 2 4 C1.34 4 0.68 4 0 4 C0 4.66 0 5.32 0 6 C-0.99 6 -1.98 6 -3 6 C-3 5.34 -3 4.68 -3 4 C-3.66 3.67 -4.32 3.34 -5 3 C-4.01 2.34 -3.02 1.68 -2 1 C-1.34 1.33 -0.68 1.66 0 2 C0 1.34 0 0.68 0 0 Z " fill="#31A82D" transform="translate(175,210)"/>
<path d="M0 0 C0.66 0 1.32 0 2 0 C2 0.66 2 1.32 2 2 C3.32 1.67 4.64 1.34 6 1 C6 3.97 6 6.94 6 10 C3.6875 9.8125 3.6875 9.8125 1 9 C-2 4.96551724 -2 4.96551724 -2 2 C-1.34 2 -0.68 2 0 2 C0 1.34 0 0.68 0 0 Z " fill="#27AB22" transform="translate(137,120)"/>
<path d="M0 0 C0.33 0.66 0.66 1.32 1 2 C0.67 2.66 0.34 3.32 0 4 C-0.99 4 -1.98 4 -3 4 C-3.33 4.66 -3.66 5.32 -4 6 C-4.9075 6.28875 -5.815 6.5775 -6.75 6.875 C-10.08307902 7.81559557 -10.08307902 7.81559557 -12.5625 10.125 C-15.34242241 12.26340185 -16.58457791 12.39033395 -20 12 C-14.09452183 6.88191892 -7.31631726 2.74361897 0 0 Z " fill="#2EA330" transform="translate(205,188)"/>
<path d="M0 0 C0.66 0 1.32 0 2 0 C2.66 1.32 3.32 2.64 4 4 C3.34 4 2.68 4 2 4 C2.66 6.64 3.32 9.28 4 12 C3.34 12 2.68 12 2 12 C2 13.32 2 14.64 2 16 C1.34 16 0.68 16 0 16 C-0.34123581 14.00133314 -0.6725678 12.00097458 -1 10 C-1.226875 8.783125 -1.45375 7.56625 -1.6875 6.3125 C-2 3 -2 3 0 0 Z " fill="#21AB20" transform="translate(327,238)"/>
<path d="M0 0 C0 0.99 0 1.98 0 3 C-4.62 3 -9.24 3 -14 3 C-14 3.66 -14 4.32 -14 5 C-16.31 5 -18.62 5 -21 5 C-21 4.01 -21 3.02 -21 2 C-18.81347261 1.66034526 -16.62571975 1.32857523 -14.4375 1 C-13.21933594 0.814375 -12.00117187 0.62875 -10.74609375 0.4375 C-7.12372152 0.01444923 -3.64287954 -0.07501425 0 0 Z " fill="#339F3A" transform="translate(123,283)"/>
<path d="M0 0 C1.58206057 0.00667536 3.16410534 0.0186375 4.74609375 0.03515625 C5.55240234 0.03966797 6.35871094 0.04417969 7.18945312 0.04882812 C9.18753131 0.06065107 11.18557158 0.07858711 13.18359375 0.09765625 C13.18359375 0.42765625 13.18359375 0.75765625 13.18359375 1.09765625 C3.44841705 3.19850363 -5.92027541 3.30871117 -15.81640625 3.09765625 C-15.81640625 2.76765625 -15.81640625 2.43765625 -15.81640625 2.09765625 C-15.03394531 2.03707031 -14.25148438 1.97648437 -13.4453125 1.9140625 C-12.43339844 1.83027344 -11.42148438 1.74648438 -10.37890625 1.66015625 C-9.36957031 1.57894531 -8.36023438 1.49773437 -7.3203125 1.4140625 C-3.72798449 0.96011778 -4.13369864 0.1057753 0 0 Z " fill="#339E3D" transform="translate(103.81640625,295.90234375)"/>
<path d="M0 0 C1.32 0 2.64 0 4 0 C4 0.66 4 1.32 4 2 C3.01 2 2.02 2 1 2 C1 2.66 1 3.32 1 4 C2.32 4 3.64 4 5 4 C5 3.34 5 2.68 5 2 C6.32 2 7.64 2 9 2 C9 1.34 9 0.68 9 0 C10.98 0 12.96 0 15 0 C12.35719359 2.64280641 9.27123173 3.71943083 5.875 5.125 C5.21628906 5.40214844 4.55757812 5.67929688 3.87890625 5.96484375 C2.25443173 6.64759391 0.62745052 7.32437433 -1 8 C-0.67 6.68 -0.34 5.36 0 4 C-0.66 4 -1.32 4 -2 4 C-2 3.34 -2 2.68 -2 2 C-1.34 2 -0.68 2 0 2 C0 1.34 0 0.68 0 0 Z " fill="#31A334" transform="translate(199,196)"/>
<path d="M0 0 C1.65 0.33 3.3 0.66 5 1 C5.33 2.65 5.66 4.3 6 6 C5.34 6 4.68 6 4 6 C4 6.66 4 7.32 4 8 C3.01 8.33 2.02 8.66 1 9 C-1.09230769 4.56923077 -1.09230769 4.56923077 -0.625 1.6875 C-0.41875 1.130625 -0.2125 0.57375 0 0 Z " fill="#23AC1F" transform="translate(169,160)"/>
<path d="M0 0 C0.99 0.33 1.98 0.66 3 1 C3.33 2.98 3.66 4.96 4 7 C2.68 7 1.36 7 0 7 C0 6.34 0 5.68 0 5 C-1.98 5.66 -3.96 6.32 -6 7 C-6 5.68 -6 4.36 -6 3 C-4.68 3 -3.36 3 -2 3 C-2 2.34 -2 1.68 -2 1 C-1.34 0.67 -0.68 0.34 0 0 Z " fill="#23AD1E" transform="translate(313,213)"/>
<path d="M0 0 C0.33 0 0.66 0 1 0 C1.12375 1.134375 1.2475 2.26875 1.375 3.4375 C1.684375 5.2009375 1.684375 5.2009375 2 7 C2.66 7.33 3.32 7.66 4 8 C3.01 8.33 2.02 8.66 1 9 C1 8.34 1 7.68 1 7 C0.01 7.495 0.01 7.495 -1 8 C-1.33 8.99 -1.66 9.98 -2 11 C-2.66 11 -3.32 11 -4 11 C-4 10.34 -4 9.68 -4 9 C-4.66 8.67 -5.32 8.34 -6 8 C-5.02471263 6.66382648 -4.04466681 5.3311249 -3.0625 4 C-2.24458984 2.88625 -2.24458984 2.88625 -1.41015625 1.75 C-0.94480469 1.1725 -0.47945313 0.595 0 0 Z " fill="#32A62F" transform="translate(345,115)"/>
<path d="M0 0 C2.35981813 0.93578995 4.69631264 1.93347808 7 3 C7 3.66 7 4.32 7 5 C5.68 5 4.36 5 3 5 C3.33 5.99 3.66 6.98 4 8 C2.68 8.33 1.36 8.66 0 9 C0 8.34 0 7.68 0 7 C-0.66 7 -1.32 7 -2 7 C-2 6.34 -2 5.68 -2 5 C-1.34 5 -0.68 5 0 5 C0 4.34 0 3.68 0 3 C-0.66 3 -1.32 3 -2 3 C-2 2.34 -2 1.68 -2 1 C-1.34 0.67 -0.68 0.34 0 0 Z " fill="#26A725" transform="translate(409,201)"/>
<path d="M0 0 C9.41030923 1.34886389 18.69503742 3.06950984 28 5 C28 5.33 28 5.66 28 6 C27.40574219 5.93941406 26.81148438 5.87882812 26.19921875 5.81640625 C19.80300071 5.16982122 13.40328386 4.57215654 7 4 C7 3.34 7 2.68 7 2 C4.69 1.67 2.38 1.34 0 1 C0 0.67 0 0.34 0 0 Z " fill="#369F3F" transform="translate(385,294)"/>
<path d="M0 0 C-0.99 0.33 -1.98 0.66 -3 1 C-3 1.66 -3 2.32 -3 3 C-8.61 3 -14.22 3 -20 3 C-20 2.67 -20 2.34 -20 2 C-13.23514355 0.3879491 -6.95041086 -0.26618595 0 0 Z " fill="#34A03B" transform="translate(294,295)"/>
<path d="M0 0 C1.32 0 2.64 0 4 0 C4 1.32 4 2.64 4 4 C4.66 4 5.32 4 6 4 C6.33 3.34 6.66 2.68 7 2 C7.93065133 4.60582371 8.14917407 5.64198224 7.0625 8.25 C6.711875 8.8275 6.36125 9.405 6 10 C4.68 9.67 3.36 9.34 2 9 C2.66 8.34 3.32 7.68 4 7 C3.34 6.34 2.68 5.68 2 5 C2 4.01 2 3.02 2 2 C1.34 2 0.68 2 0 2 C0 1.34 0 0.68 0 0 Z " fill="#29AB24" transform="translate(151,138)"/>
<path d="M0 0 C-2 2 -2 2 -5.625 2.125 C-6.73875 2.08375 -7.8525 2.0425 -9 2 C-9 2.66 -9 3.32 -9 4 C-11.97 4 -14.94 4 -18 4 C-15.07089056 2.04726038 -12.91867709 1.24603637 -9.5625 0.3125 C-8.61503906 0.04050781 -7.66757813 -0.23148437 -6.69140625 -0.51171875 C-4.01081763 -0.99803744 -2.53712417 -0.89369149 0 0 Z " fill="#2DA034" transform="translate(81,292)"/>
<path d="M0 0 C-0.33 1.65 -0.66 3.3 -1 5 C-4.3 5 -7.6 5 -11 5 C-10.67 4.34 -10.34 3.68 -10 3 C-9.01 3 -8.02 3 -7 3 C-7 2.34 -7 1.68 -7 1 C-2.25 0 -2.25 0 0 0 Z " fill="#2BAC23" transform="translate(177,335)"/>
<path d="M0 0 C3.375 -0.125 3.375 -0.125 7 0 C7.66 0.66 8.32 1.32 9 2 C7.56656 2.53190541 6.12804633 3.05015258 4.6875 3.5625 C3.48673828 3.99755859 3.48673828 3.99755859 2.26171875 4.44140625 C0 5 0 5 -3 4 C-3 3.34 -3 2.68 -3 2 C-2.01 2 -1.02 2 0 2 C0 1.34 0 0.68 0 0 Z " fill="#3BA536" transform="translate(374,220)"/>
<path d="M0 0 C2.13745922 0.25146579 3.45925779 0.45925779 5 2 C5.04063832 3.66617115 5.042721 5.33388095 5 7 C4.01 7.495 4.01 7.495 3 8 C2.566875 7.54625 2.13375 7.0925 1.6875 6.625 C-0.10798342 4.79975666 -0.10798342 4.79975666 -3 3 C-1.75 1.4375 -1.75 1.4375 0 0 Z " fill="#2BA728" transform="translate(122,220)"/>
<path d="M0 0 C0.99 0 1.98 0 3 0 C3 0.66 3 1.32 3 2 C3.66 2 4.32 2 5 2 C5 3.32 5 4.64 5 6 C3.68 6.33 2.36 6.66 1 7 C0.01 5.35 -0.98 3.7 -2 2 C-1.34 1.34 -0.68 0.68 0 0 Z " fill="#35A235" transform="translate(310,218)"/>
<path d="M0 0 C4.62 0 9.24 0 14 0 C14 0.33 14 0.66 14 1 C11.56421213 1.53030068 9.12694025 2.04952312 6.6875 2.5625 C5.99720703 2.71396484 5.30691406 2.86542969 4.59570312 3.02148438 C1.24455934 3.71761569 -0.69534072 4.10155309 -4 3 C-2.68 2.67 -1.36 2.34 0 2 C0 1.34 0 0.68 0 0 Z " fill="#379F40" transform="translate(252,318)"/>
<path d="M0 0 C2.97 0.33 5.94 0.66 9 1 C9 1.66 9 2.32 9 3 C9.66 3.33 10.32 3.66 11 4 C9.8553125 4.2165625 9.8553125 4.2165625 8.6875 4.4375 C5.91827092 4.9632594 5.91827092 4.9632594 3 6 C2.34 5.67 1.68 5.34 1 5 C0.375 2.4375 0.375 2.4375 0 0 Z " fill="#2CA330" transform="translate(376,292)"/>
<path d="M0 0 C-5.61 2.31 -11.22 4.62 -17 7 C-17.33 6.34 -17.66 5.68 -18 5 C-17.34 5 -16.68 5 -16 5 C-16 4.34 -16 3.68 -16 3 C-14.35 3 -12.7 3 -11 3 C-11 2.34 -11 1.68 -11 1 C-4.5 -1.125 -4.5 -1.125 0 0 Z " fill="#33A036" transform="translate(405,213)"/>
<path d="M0 0 C1.875 0.25 1.875 0.25 4 1 C5.25 3.0625 5.25 3.0625 6 5 C4.68 5.33 3.36 5.66 2 6 C2 5.34 2 4.68 2 4 C1.34 4 0.68 4 0 4 C0 4.66 0 5.32 0 6 C-0.99 6 -1.98 6 -3 6 C-3 5.34 -3 4.68 -3 4 C-2.34 4 -1.68 4 -1 4 C-0.67 2.68 -0.34 1.36 0 0 Z " fill="#35A72F" transform="translate(137,116)"/>
<path d="M0 0 C0.66 0 1.32 0 2 0 C2.33 1.32 2.66 2.64 3 4 C3.99 4 4.98 4 6 4 C5.67 5.32 5.34 6.64 5 8 C4.01 8 3.02 8 2 8 C2 7.34 2 6.68 2 6 C1.34 6 0.68 6 0 6 C-0.38218767 4.34385343 -0.71395102 2.67542976 -1 1 C-0.67 0.67 -0.34 0.34 0 0 Z " fill="#20A822" transform="translate(337,128)"/>
<path d="M0 0 C0.99 0.33 1.98 0.66 3 1 C3 1.66 3 2.32 3 3 C4.65 3 6.3 3 8 3 C8 3.66 8 4.32 8 5 C7.01 5 6.02 5 5 5 C5 5.66 5 6.32 5 7 C3.125 6.8125 3.125 6.8125 1 6 C-0.25 3.4375 -0.25 3.4375 -1 1 C-0.67 0.67 -0.34 0.34 0 0 Z " fill="#21A91F" transform="translate(360,221)"/>
<path d="M0 0 C0 0.33 0 0.66 0 1 C-6.34823202 3.30844801 -12.29481414 3.19818283 -19 3 C-19 2.67 -19 2.34 -19 2 C-12.56986533 0.26044666 -6.65050424 -0.24991456 0 0 Z " fill="#379F3F" transform="translate(238,181)"/>
<path d="M0 0 C0.99 0 1.98 0 3 0 C1.34832443 3.5786304 -0.78286492 6.74820188 -3 10 C-3.66 8.68 -4.32 7.36 -5 6 C-4.01 6 -3.02 6 -2 6 C-2 5.34 -2 4.68 -2 4 C-2.66 4 -3.32 4 -4 4 C-4 3.34 -4 2.68 -4 2 C-2.68 2 -1.36 2 0 2 C0 1.34 0 0.68 0 0 Z " fill="#32A234" transform="translate(323,156)"/>
<path d="M0 0 C2.875 -0.125 2.875 -0.125 6 0 C6.66 0.66 7.32 1.32 8 2 C7.67 2.66 7.34 3.32 7 4 C4.03 4 1.06 4 -2 4 C-1.34 2.68 -0.68 1.36 0 0 Z " fill="#21AB1F" transform="translate(229,310)"/>
<path d="M0 0 C2.00720923 0.28674418 4.0085944 0.61866701 6 1 C6 1.99 6 2.98 6 4 C0.06 3.67 -5.88 3.34 -12 3 C-12 2.67 -12 2.34 -12 2 C-11.21753906 1.93941406 -10.43507813 1.87882812 -9.62890625 1.81640625 C-8.61699219 1.73261719 -7.60507812 1.64882813 -6.5625 1.5625 C-5.55316406 1.48128906 -4.54382813 1.40007812 -3.50390625 1.31640625 C-1.06359221 1.26788532 -1.06359221 1.26788532 0 0 Z " fill="#3D9C45" transform="translate(441,308)"/>
<path d="M0 0 C-0.66 1.32 -1.32 2.64 -2 4 C-5.3 4 -8.6 4 -12 4 C-8.74358283 0.74358283 -4.52301031 0 0 0 Z " fill="#30A134" transform="translate(243,306)"/>
<path d="M0 0 C2.48728231 2.91985315 3.71066493 5.14219907 4 9 C3.0625 11.3125 3.0625 11.3125 2 13 C0.24252386 8.49646738 -0.19294408 4.82360189 0 0 Z " fill="#38A735" transform="translate(330,235)"/>
<path d="M0 0 C1.796875 0.12109375 1.796875 0.12109375 4 1 C5.703125 3.72265625 5.703125 3.72265625 7.25 7.0625 C7.77078125 8.16722656 8.2915625 9.27195313 8.828125 10.41015625 C9.21484375 11.26480469 9.6015625 12.11945313 10 13 C9.34 13 8.68 13 8 13 C6.30859375 10.6640625 6.30859375 10.6640625 4.4375 7.625 C3.50744141 6.12839844 3.50744141 6.12839844 2.55859375 4.6015625 C1.65664216 3.09604932 0.78486771 1.56973542 0 0 Z " fill="#2BA132" transform="translate(312,226)"/>
<path d="M0 0 C1.32 0.33 2.64 0.66 4 1 C1.03 4.96 1.03 4.96 -2 9 C-2.66 8.67 -3.32 8.34 -4 8 C-2.99983813 4.9995144 -1.6627026 2.67478244 0 0 Z " fill="#2CA130" transform="translate(175,220)"/>
<path d="M0 0 C3.63 0 7.26 0 11 0 C11 0.66 11 1.32 11 2 C9.741875 2.185625 8.48375 2.37125 7.1875 2.5625 C6.12595703 2.71912109 6.12595703 2.71912109 5.04296875 2.87890625 C3 3 3 3 0 2 C0 1.34 0 0.68 0 0 Z " fill="#23A623" transform="translate(425,306)"/>
<path d="M0 0 C0.66 0 1.32 0 2 0 C2 1.98 2 3.96 2 6 C-1.75 7.125 -1.75 7.125 -4 6 C-4 5.34 -4 4.68 -4 4 C-3.34 4 -2.68 4 -2 4 C-1.67 3.01 -1.34 2.02 -1 1 C-0.67 0.67 -0.34 0.34 0 0 Z " fill="#23AC20" transform="translate(155,248)"/>
<path d="M0 0 C0.66 0 1.32 0 2 0 C2 1.65 2 3.3 2 5 C1.34 5 0.68 5 0 5 C0 6.32 0 7.64 0 9 C-0.66 9 -1.32 9 -2 9 C-2.6875 7.3125 -2.6875 7.3125 -3 5 C-1.6875 2.25 -1.6875 2.25 0 0 Z " fill="#31A42F" transform="translate(159,229)"/>
<path d="M0 0 C1.45880109 0.14107747 2.91703551 0.28802415 4.375 0.4375 C5.59316406 0.55931641 5.59316406 0.55931641 6.8359375 0.68359375 C9 1 9 1 11 2 C11 2.66 11 3.32 11 4 C12.32 4.33 13.64 4.66 15 5 C9.33895411 4.50341703 5.12325529 3.45489316 0 1 C0 0.67 0 0.34 0 0 Z " fill="#2BA12F" transform="translate(95,218)"/>
<path d="M0 0 C1.65 1.32 3.3 2.64 5 4 C3.68 5.32 2.36 6.64 1 8 C0.01 7.67 -0.98 7.34 -2 7 C-2 6.34 -2 5.68 -2 5 C-0.68 5 0.64 5 2 5 C2 4.34 2 3.68 2 3 C0.68 3 -0.64 3 -2 3 C-2 2.34 -2 1.68 -2 1 C-1.34 0.67 -0.68 0.34 0 0 Z " fill="#33A630" transform="translate(414,201)"/>
<path d="M0 0 C1.60875 0.5878125 1.60875 0.5878125 3.25 1.1875 C3.25 1.5175 3.25 1.8475 3.25 2.1875 C0.94 2.1875 -1.37 2.1875 -3.75 2.1875 C-4.08 3.1775 -4.41 4.1675 -4.75 5.1875 C-5.74 4.1975 -6.73 3.2075 -7.75 2.1875 C-4.89394414 -0.7827981 -4.16493458 -0.90240249 0 0 Z " fill="#2BA430" transform="translate(73.75,197.8125)"/>
<path d="M0 0 C0.99 0.33 1.98 0.66 3 1 C3 2.98 3 4.96 3 7 C2.01 7.495 2.01 7.495 1 8 C0.67 7.01 0.34 6.02 0 5 C-0.99 4.67 -1.98 4.34 -3 4 C-2.67 3.01 -2.34 2.02 -2 1 C-1.34 0.67 -0.68 0.34 0 0 Z " fill="#35A531" transform="translate(350,112)"/>
<path d="M0 0 C4.29 0 8.58 0 13 0 C9.2722114 2.4851924 6.08677188 3.38440535 1.625 2.5625 C1.08875 2.376875 0.5525 2.19125 0 2 C0 1.34 0 0.68 0 0 Z " fill="#349F3A" transform="translate(185,334)"/>
<path d="M0 0 C2.31 0 4.62 0 7 0 C7 0.66 7 1.32 7 2 C8.65 2 10.3 2 12 2 C12 2.33 12 2.66 12 3 C8.37 3 4.74 3 1 3 C0.67 2.01 0.34 1.02 0 0 Z " fill="#3C9E46" transform="translate(403,306)"/>
<path d="M0 0 C4.55384615 -0.36923077 4.55384615 -0.36923077 6.8125 1.5 C7.204375 1.995 7.59625 2.49 8 3 C5.29120665 4.35439668 2.99066732 4.06501451 0 4 C0 2.68 0 1.36 0 0 Z " fill="#1FA820" transform="translate(371,292)"/>
<path d="M0 0 C4.29 0 8.58 0 13 0 C12.01 0.33 11.02 0.66 10 1 C10 1.66 10 2.32 10 3 C8.02 3 6.04 3 4 3 C4 2.34 4 1.68 4 1 C2.68 0.67 1.36 0.34 0 0 Z " fill="#329F39" transform="translate(361,291)"/>
<path d="M0 0 C1.98 0 3.96 0 6 0 C6 0.66 6 1.32 6 2 C6.66 2.33 7.32 2.66 8 3 C4.04 3 0.08 3 -4 3 C-2.68 2.67 -1.36 2.34 0 2 C0 1.34 0 0.68 0 0 Z " fill="#2A9F2F" transform="translate(419,306)"/>
<path d="M0 0 C1.485 0.99 1.485 0.99 3 2 C5.62531524 2.16713569 5.62531524 2.16713569 8 2 C8 2.99 8 3.98 8 5 C5.69 5 3.38 5 1 5 C0.67 3.35 0.34 1.7 0 0 Z M3 1 C5 2 5 2 5 2 Z " fill="#20A81F" transform="translate(66,201)"/>
<path d="M0 0 C0.99 0 1.98 0 3 0 C3 1.98 3 3.96 3 6 C1.68 6 0.36 6 -1 6 C-1.042721 4.33388095 -1.04063832 2.66617115 -1 1 C-0.67 0.67 -0.34 0.34 0 0 Z " fill="#1FA91F" transform="translate(152,258)"/>
<path d="M0 0 C0 0.33 0 0.66 0 1 C-5.45461169 2.38529821 -10.36718401 3.2396943 -16 3 C-16 2.67 -16 2.34 -16 2 C-10.60539047 -0.27141454 -5.73842251 -0.20413361 0 0 Z " fill="#329E3D" transform="translate(247,322)"/>
<path d="M0 0 C0 0.99 0 1.98 0 3 C-1.258125 3.04125 -2.51625 3.0825 -3.8125 3.125 C-4.52019531 3.14820313 -5.22789063 3.17140625 -5.95703125 3.1953125 C-8 3 -8 3 -11 1 C-7.32589215 -0.17571451 -3.83070817 -0.07366746 0 0 Z " fill="#3CA441" transform="translate(123,283)"/>
<path d="M0 0 C2.15377564 2.62198774 3.40072174 4.64404172 4 8 C2.35 7.67 0.7 7.34 -1 7 C-0.67 4.69 -0.34 2.38 0 0 Z " fill="#31A431" transform="translate(326,227)"/>
<path d="M0 0 C0.66 0.33 1.32 0.66 2 1 C-2.30769231 5.92307692 -2.30769231 5.92307692 -5.8125 6.3125 C-6.8953125 6.1578125 -6.8953125 6.1578125 -8 6 C-5.38485683 3.87961365 -2.80362384 1.86908256 0 0 Z " fill="#329E3A" transform="translate(193,194)"/>
<path d="M0 0 C-2.3129482 2.3129482 -3.47904875 2.49580975 -6.625 3.125 C-7.44226563 3.29257813 -8.25953125 3.46015625 -9.1015625 3.6328125 C-10.04128906 3.81457031 -10.04128906 3.81457031 -11 4 C-11.33 3.34 -11.66 2.68 -12 2 C-7.82262526 0.40861915 -4.46839215 -0.21278058 0 0 Z " fill="#2CA234" transform="translate(227,192)"/>
<path d="M0 0 C4.455 0.99 4.455 0.99 9 2 C9 2.33 9 2.66 9 3 C5.7 3 2.4 3 -1 3 C-0.67 2.01 -0.34 1.02 0 0 Z " fill="#33A039" transform="translate(425,303)"/>
<path d="M0 0 C3.87132028 0.57352893 6.08172796 2.48704352 9 5 C6.75 5.25 6.75 5.25 4 5 C1.6875 3.0625 1.6875 3.0625 0 1 C0 0.67 0 0.34 0 0 Z " fill="#33A138" transform="translate(292,195)"/>
<path d="M0 0 C0.99 0.66 1.98 1.32 3 2 C2.34 2 1.68 2 1 2 C1 2.66 1 3.32 1 4 C0.34 4 -0.32 4 -1 4 C-1 4.66 -1 5.32 -1 6 C-1.99 6 -2.98 6 -4 6 C-2.25 1.125 -2.25 1.125 0 0 Z " fill="#2E9F31" transform="translate(134,112)"/>
<path d="M0 0 C1.32 0 2.64 0 4 0 C4 0.66 4 1.32 4 2 C3.34 2 2.68 2 2 2 C2 2.66 2 3.32 2 4 C1.01 4.33 0.02 4.66 -1 5 C-1.99 4.01 -2.98 3.02 -4 2 C-2.68 2 -1.36 2 0 2 C0 1.34 0 0.68 0 0 Z " fill="#37A337" transform="translate(295,204)"/>
<path d="M0 0 C2.35981813 0.93578995 4.69631264 1.93347808 7 3 C7 3.66 7 4.32 7 5 C3.97580475 4.41196203 0.98241547 3.77321882 -2 3 C-2 2.34 -2 1.68 -2 1 C-1.34 0.67 -0.68 0.34 0 0 Z " fill="#1AAB1A" transform="translate(409,201)"/>
<path d="M0 0 C1.65 0 3.3 0 5 0 C5 0.66 5 1.32 5 2 C4.34 2 3.68 2 3 2 C3 2.66 3 3.32 3 4 C1.68 4 0.36 4 -1 4 C-0.67 2.68 -0.34 1.36 0 0 Z " fill="#1EAB1D" transform="translate(148,136)"/>
<path d="M0 0 C0 0.66 0 1.32 0 2 C-2.97 2 -5.94 2 -9 2 C-4 -1.33333333 -4 -1.33333333 0 0 Z " fill="#36A537" transform="translate(72,294)"/>
<path d="M0 0 C1.76462683 3.08809695 2 4.23312136 2 8 C1.34 8 0.68 8 0 8 C0 7.34 0 6.68 0 6 C-0.66 5.67 -1.32 5.34 -2 5 C-1.34 3.35 -0.68 1.7 0 0 Z " fill="#38A933" transform="translate(155,236)"/>
<path d="M0 0 C0.66 0.33 1.32 0.66 2 1 C1.01 2.485 1.01 2.485 0 4 C-3.625 4.1875 -3.625 4.1875 -7 4 C-4.61426621 2.10786631 -2.92824652 0.97608217 0 0 Z " fill="#2FA038" transform="translate(393,206)"/>
<path d="M0 0 C0.66 0 1.32 0 2 0 C2 0.66 2 1.32 2 2 C2.66 2 3.32 2 4 2 C4 3.65 4 5.3 4 7 C2 5.1875 2 5.1875 0 3 C0 2.01 0 1.02 0 0 Z " fill="#33A133" transform="translate(159,154)"/>
</svg>
