<svg width="100" height="100" viewBox="0 0 100 100" fill="none" xmlns="http://www.w3.org/2000/svg">
    <rect width="100" height="100" fill="#FF4713"/>
    <path d="M80.3052 87.9982C76.9957 87.9982 74.9609 85.4899 74.9609 81.3333V81.3214C74.9609 77.1529 76.9957 74.6685 80.3052 74.6685C82.1683 74.6685 83.6392 75.6001 84.3501 77.1529H84.4236V70.5H88.0028V87.7354H84.4236V85.5496H84.3501C83.6514 87.0665 82.2051 87.9982 80.3052 87.9982ZM81.5064 85.1077C83.2469 85.1077 84.4359 83.6505 84.4359 81.3333V81.3214C84.4359 79.0162 83.2347 77.559 81.5064 77.559C79.7291 77.559 78.6014 78.9803 78.6014 81.3214V81.3333C78.6014 83.6624 79.7168 85.1077 81.5064 85.1077Z" fill="white"/>
    <path d="M66.6002 87.9379C63.9648 87.9379 62.1875 86.3255 62.1875 84.068V84.0441C62.1875 81.715 64.0384 80.3534 67.2988 80.1503L70.547 79.9592V79.1709C70.547 78.0362 69.7871 77.3315 68.3897 77.3315C67.0537 77.3315 66.2447 77.9407 66.0731 78.7648L66.0486 78.8723H62.7759L62.7881 78.729C62.9842 76.364 65.068 74.668 68.5368 74.668C71.9321 74.668 74.1262 76.376 74.1262 78.9559V87.7349H70.547V85.8238H70.4735C69.7258 87.1377 68.3285 87.9379 66.6002 87.9379ZM65.7299 83.8888C65.7299 84.8324 66.5266 85.3938 67.7646 85.3938C69.3703 85.3938 70.547 84.3905 70.547 83.0528V82.1331L67.8382 82.3003C66.4531 82.3839 65.7299 82.9572 65.7299 83.865V83.8888Z" fill="white"/>
    <path d="M42.0156 87.7349V74.9307H45.5948V77.0807H45.6683C46.2077 75.6235 47.5805 74.668 49.3455 74.668C51.1842 74.668 52.5202 75.6235 52.9615 77.3076H53.035C53.6234 75.6952 55.1923 74.668 57.1167 74.668C59.6908 74.668 61.4191 76.3999 61.4191 78.9798V87.7349H57.8399V79.8517C57.8399 78.3707 57.08 77.5585 55.6949 77.5585C54.3343 77.5585 53.4395 78.5259 53.4395 79.9473V87.7349H49.9952V79.7442C49.9952 78.3707 49.1985 77.5585 47.8747 77.5585C46.5141 77.5585 45.5948 78.5618 45.5948 80.007V87.7349H42.0156Z" fill="white"/>
    <path d="M34.6493 87.9976C30.6534 87.9976 28.1406 85.5013 28.1406 81.3328V81.3089C28.1406 77.1882 30.7147 74.668 34.637 74.668C38.5717 74.668 41.158 77.1643 41.158 81.3089V81.3328C41.158 85.5132 38.6207 87.9976 34.6493 87.9976ZM34.6616 85.2624C36.4021 85.2624 37.5175 83.8291 37.5175 81.3328V81.3089C37.5175 78.8365 36.3776 77.4032 34.637 77.4032C32.9088 77.4032 31.7811 78.8365 31.7811 81.3089V81.3328C31.7811 83.8411 32.8965 85.2624 34.6616 85.2624Z" fill="white"/>
    <path d="M12 87.7354V70.5H15.236L23.2278 81.7036H23.3013V70.5H26.9908V87.7354H23.7793L15.763 76.4482H15.6895V87.7354H12Z" fill="white"/>
    <path d="M78.1678 23.4978C77.2996 23.4978 76.5372 23.3236 75.8806 22.9752C75.224 22.6213 74.7112 22.1282 74.3422 21.4956C73.9787 20.863 73.7969 20.1286 73.7969 19.2923C73.7969 18.6812 73.9027 18.1183 74.1143 17.6037C74.3259 17.0837 74.6244 16.6334 75.0097 16.2528C75.3949 15.8722 75.8453 15.5774 76.3608 15.3683C76.8818 15.1592 77.4488 15.0547 78.062 15.0547C78.7294 15.0547 79.3236 15.1726 79.8446 15.4085C80.3655 15.639 80.7969 15.9633 81.1387 16.3815C81.486 16.7996 81.7302 17.2901 81.8713 17.853C82.0178 18.4105 82.0422 19.0163 81.9446 19.6703H75.5143C75.5035 20.1474 75.6093 20.5655 75.8318 20.9247C76.0542 21.2785 76.3717 21.5546 76.7841 21.7529C77.2019 21.9513 77.693 22.0504 78.2573 22.0504C78.7132 22.0504 79.1527 21.9834 79.576 21.8494C80.0046 21.71 80.3926 21.5063 80.7399 21.2383L81.4318 22.5088C81.1713 22.7178 80.8566 22.8974 80.4876 23.0475C80.1186 23.1923 79.7333 23.3022 79.3318 23.3772C78.9302 23.4576 78.5422 23.4978 78.1678 23.4978ZM75.6201 18.3676H80.1864C80.1701 17.7672 79.9748 17.2955 79.6004 16.9524C79.2314 16.6093 78.705 16.4378 78.0213 16.4378C77.3593 16.4378 76.8085 16.6093 76.369 16.9524C75.9349 17.2955 75.6852 17.7672 75.6201 18.3676Z" fill="white"/>
    <path d="M70.5981 23.4978C69.7516 23.4978 68.9974 23.3156 68.3354 22.951C67.6733 22.5811 67.1524 22.0799 66.7726 21.4473C66.3981 20.8094 66.2109 20.0857 66.2109 19.2763C66.2109 18.6651 66.3222 18.1049 66.5447 17.5957C66.7671 17.081 67.0819 16.6334 67.4888 16.2528C67.8958 15.8722 68.3733 15.5774 68.9214 15.3683C69.4749 15.1592 70.0745 15.0547 70.7202 15.0547C71.2629 15.0547 71.7648 15.1271 72.2261 15.2718C72.6927 15.4112 73.1214 15.6283 73.5121 15.9231L72.6493 17.274C72.3997 17.0542 72.1121 16.8907 71.7865 16.7835C71.4664 16.6763 71.1245 16.6227 70.7609 16.6227C70.1966 16.6227 69.7109 16.7272 69.304 16.9363C68.897 17.1454 68.5795 17.4482 68.3516 17.8449C68.1292 18.2363 68.0179 18.7107 68.0179 19.2682C68.0179 20.0991 68.2621 20.7505 68.7505 21.2222C69.2443 21.6939 69.9144 21.9298 70.7609 21.9298C71.1625 21.9298 71.5423 21.8574 71.9005 21.7127C72.2586 21.5626 72.5571 21.3669 72.7958 21.1257L73.6505 22.4686C73.2218 22.7902 72.7443 23.0422 72.2179 23.2244C71.6916 23.4067 71.1516 23.4978 70.5981 23.4978Z" fill="white"/>
    <path d="M57.5391 23.2566V15.2959H59.3298V16.3091C59.6662 15.8642 60.0569 15.5452 60.5019 15.3522C60.9468 15.1539 61.4081 15.0547 61.8856 15.0547C62.6236 15.0547 63.234 15.1994 63.717 15.4889C64.1999 15.7784 64.5581 16.151 64.7914 16.6066C65.0302 17.0623 65.1495 17.5313 65.1495 18.0138V23.2566H63.3588V18.5606C63.3588 17.9924 63.1852 17.5367 62.8379 17.1936C62.496 16.8505 62.0185 16.679 61.4053 16.679C61.0038 16.679 60.6457 16.7674 60.3309 16.9443C60.0216 17.1212 59.7774 17.3678 59.5984 17.6841C59.4193 17.995 59.3298 18.3596 59.3298 18.7777V23.2566H57.5391Z" fill="white"/>
    <path d="M51.1414 23.4978C50.3383 23.4978 49.6274 23.3156 49.0088 22.951C48.3957 22.5811 47.9127 22.0799 47.56 21.4473C47.2127 20.8094 47.0391 20.0857 47.0391 19.2763C47.0391 18.6705 47.1395 18.1103 47.3402 17.5957C47.541 17.081 47.8232 16.6334 48.1867 16.2528C48.5503 15.8722 48.9844 15.5774 49.4891 15.3683C49.9937 15.1592 50.5445 15.0547 51.1414 15.0547C51.9336 15.0547 52.5957 15.2209 53.1274 15.5532C53.6646 15.8856 54.0743 16.3145 54.3565 16.8398L54.1042 17.2177V15.2959H55.6995V23.2566H54.1042V21.3348L54.3565 21.7127C54.0743 22.2381 53.6646 22.6669 53.1274 22.9993C52.5957 23.3316 51.9336 23.4978 51.1414 23.4978ZM51.3774 21.9298C51.8658 21.9298 52.3026 21.8226 52.6879 21.6082C53.0732 21.3884 53.3743 21.0801 53.5914 20.6834C53.8139 20.2868 53.9251 19.8177 53.9251 19.2763C53.9251 18.7348 53.8139 18.2658 53.5914 17.8691C53.3743 17.467 53.0732 17.1588 52.6879 16.9443C52.3026 16.7299 51.8658 16.6227 51.3774 16.6227C50.8836 16.6227 50.4441 16.7299 50.0588 16.9443C49.679 17.1588 49.3778 17.467 49.1553 17.8691C48.9329 18.2658 48.8216 18.7348 48.8216 19.2763C48.8216 19.8177 48.9329 20.2868 49.1553 20.6834C49.3778 21.0801 49.679 21.3884 50.0588 21.6082C50.4441 21.8226 50.8836 21.9298 51.3774 21.9298Z" fill="white"/>
    <path d="M41.8672 23.2568V15.2961H43.6579V16.3978C43.9618 15.8992 44.3308 15.5508 44.7649 15.3524C45.199 15.1487 45.6656 15.0469 46.1649 15.0469C46.3277 15.0469 46.4823 15.0549 46.6288 15.071C46.7753 15.0871 46.9164 15.1112 47.0521 15.1434L46.816 16.9687C46.6532 16.9204 46.4877 16.8829 46.3195 16.8561C46.1513 16.8293 45.9831 16.8159 45.8149 16.8159C45.1908 16.8159 44.6753 17.0062 44.2684 17.3868C43.8614 17.7621 43.6579 18.274 43.6579 18.9227V23.2568H41.8672Z" fill="white"/>
    <path d="M35.7845 23.4988C35.0627 23.4988 34.4658 23.3567 33.9938 23.0726C33.5271 22.7831 33.1771 22.4025 32.9438 21.9308C32.7104 21.459 32.5938 20.9444 32.5938 20.3869V15.2969H34.3844V20.0572C34.3844 20.604 34.5472 21.0436 34.8728 21.3759C35.2038 21.7029 35.6596 21.8664 36.2403 21.8664C36.6201 21.8664 36.9593 21.7833 37.2577 21.6172C37.5562 21.4456 37.7922 21.2071 37.9658 20.9015C38.1449 20.5959 38.2345 20.2421 38.2345 19.8401V15.2969H40.0251V23.2575H38.4135V22.3167C38.0988 22.692 37.7244 22.9841 37.2903 23.1932C36.8616 23.3969 36.3596 23.4988 35.7845 23.4988Z" fill="white"/>
    <path d="M28.0013 23.4921C27.3338 23.4921 26.7098 23.3983 26.1292 23.2106C25.5486 23.023 25.0602 22.771 24.6641 22.4548L25.3396 21.1602C25.7141 21.4496 26.1346 21.6775 26.6013 21.8436C27.0734 22.0098 27.5373 22.0929 27.9931 22.0929C28.5195 22.0929 28.9292 22.0018 29.2222 21.8195C29.5152 21.6373 29.6617 21.3826 29.6617 21.0556C29.6617 20.7447 29.5342 20.5169 29.2792 20.3721C29.0296 20.222 28.552 20.0666 27.8466 19.9057C26.8319 19.6967 26.0939 19.4018 25.6327 19.0212C25.1769 18.6353 24.9489 18.1019 24.9489 17.4211C24.9489 16.9439 25.0819 16.5231 25.3478 16.1586C25.6191 15.7887 25.9908 15.4992 26.4629 15.2902C26.935 15.0811 27.4803 14.9766 28.0989 14.9766C28.7013 14.9766 29.2683 15.0623 29.8001 15.2339C30.3319 15.4001 30.7931 15.6359 31.1838 15.9415L30.5489 17.2441C30.3482 17.0672 30.1148 16.9145 29.8489 16.7858C29.5831 16.6571 29.3009 16.558 29.0024 16.4883C28.7094 16.4132 28.4164 16.3757 28.1234 16.3757C27.6676 16.3757 27.2958 16.4642 27.0082 16.6411C26.7261 16.8126 26.585 17.0512 26.585 17.3567C26.585 17.673 26.7207 17.9062 26.992 18.0563C27.2633 18.2064 27.73 18.3565 28.392 18.5066C29.4338 18.7317 30.18 19.0319 30.6303 19.4072C31.0807 19.7824 31.3059 20.3024 31.3059 20.9672C31.3059 21.4764 31.1676 21.9214 30.8908 22.302C30.6141 22.6772 30.2261 22.9694 29.7269 23.1785C29.2331 23.3875 28.6579 23.4921 28.0013 23.4921Z" fill="white"/>
    <path d="M15.9062 23.2566V15.2959H17.6969V16.3091C18.0334 15.8642 18.4241 15.5452 18.869 15.3522C19.314 15.1539 19.7752 15.0547 20.2528 15.0547C20.9907 15.0547 21.6012 15.1994 22.0842 15.4889C22.5671 15.7784 22.9252 16.151 23.1586 16.6066C23.3973 17.0623 23.5167 17.5313 23.5167 18.0138V23.2566H21.726V18.5606C21.726 17.9924 21.5524 17.5367 21.2051 17.1936C20.8632 16.8505 20.3857 16.679 19.7725 16.679C19.371 16.679 19.0128 16.7674 18.6981 16.9443C18.3888 17.1212 18.1446 17.3678 17.9656 17.6841C17.7865 17.995 17.6969 18.3596 17.6969 18.7777V23.2566H15.9062Z" fill="white"/>
    <path d="M12 23.2575V12H13.8233V23.2575H12Z" fill="white"/>
</svg>
